<?xml version="1.0" encoding="utf-8"?>
<!-- Generator: Adobe Illustrator 19.0.0, SVG Export Plug-In . SVG Version: 6.00 Build 0)  -->
<svg version="1.1" id="Layer_1" xmlns="http://www.w3.org/2000/svg" xmlns:xlink="http://www.w3.org/1999/xlink" x="0px" y="0px"
	 viewBox="0 0 500 500" style="enable-background:new 0 0 500 500;" xml:space="preserve">
<style type="text/css">
	.st0{fill:#DD3735;}
</style>
<g id="XMLID_1_">
	<path id="XMLID_2_" class="st0" d="M432.4,240.5c-0.1-4.7-0.4-9.5-0.6-14.2c-0.2-4.8-0.4-9.6-0.9-14.4c-0.9-6.5-1.7-13.2-3.2-19.6
		c-1.1-5.3-3-10.3-4.8-15.4c-2.3-5.9-4.7-12-7.6-17.6c-4.8-9.1-11.1-17.3-16.9-25.8c-3.8-5.4-8.7-9.9-12.4-15.4
		c-2.1-3.2-5.2-5.9-8.3-8.4c-4.9-3.9-10.1-7.5-15.3-11c-3.9-2.7-7.9-5.3-12.1-7.6c-3.3-1.8-6.9-3.3-10.4-4.9
		c-3.9-1.8-7.8-4.1-12.2-4.9c-1.1-0.2-2.1-0.6-3.2-1c-2.8-1-5.5-2.1-8.4-3c-4.3-1.4-8.5-3-12.9-4.1c-4.3-1.1-8.7-1.8-13.2-2.5
		c-4.9-0.7-10-1-14.9-1.5c-3.2-0.4-6.4-0.7-9.5-0.9c-4.7-0.2-9.5-0.2-14.2-0.4c-2.3-0.1-4.8-0.4-7.1-0.2c-3.6,0.1-7.1,0.5-10.7,1
		c-3.4,0.4-6.9,1-10.2,1.5c-4.1,0.5-8.1,0.7-12.2,1.2c-3.8,0.5-7.8,1.2-11.6,1.8c-1.4,0.2-2.7,0.7-4.1,1c-3,0.6-6,0.9-9,1.8
		c-5.3,1.6-10.6,3.5-15.8,5.4c-4.8,2-9.5,4.1-14,6.5c-4.7,2.6-9.1,5.7-13.6,8.6c-4.2,2.8-8.4,5.8-12.4,9c-3.9,3.1-7.6,6.5-11.2,10
		c-2,2-3.6,4.3-5.4,6.5c-3.1,3.6-6.2,7-9.1,10.7c-2.5,3.1-4.7,6.3-7,9.5c-4.2,5.7-7.8,11.7-11.1,17.7c-1.4,2.5-2.6,4.9-3.8,7.4
		c-1.8,3.7-3.8,7.3-5.5,11.1c-1.2,2.6-2.2,5.4-3,8.3c-1.7,6-3.5,12.2-5.1,18.2c-1.5,5.4-1.8,11.1-2,16.6c-0.1,4.9,0.4,9.7,0.9,14.7
		c0.1,1.2-0.6,2.7,0.9,3.7l-0.1,0.6c-0.4,0.7,0,1.5,0.7,1.7l0.1,0.2h-0.6c-0.4,1.1,0.9,2,0.4,3.2c-0.1,0.2,0.4,0.7,0.6,1.1
		c0,0.4-0.1,0.9,0,1.2c0.1,1.1,0.6,2.2,0.6,3.5c0,0.9,0.7,1.8,1,2.7c0.1,0.4,0,1-0.2,1.2c-0.7,0.9-0.6,1.6,0.5,2.1
		c0.2,0.1,0.6,0.6,0.6,0.9c0,0.7-0.2,1.5-0.4,2.2c0.2,0.2,0.4,0.5,0.2,0.7c0,0.4-0.4,0.7-0.2,1c1,2,1.4,4.2,1.5,6.4
		c0,0.5,0.2,1,0.5,1.6c0.1,0,0.5,0,0.7,0.1l-0.7,2.2c0.6-0.4,1.1-0.5,1.7-0.7c0.4,1.6,0.7,3.1,1.2,4.4c0.1,0.2,0.4,0.5,0.7,0.7
		c-0.1,0.2-0.1,0.7-0.4,0.9c0.5,2.2,0.7,4.3,1.6,6.4l0.4-0.1c-0.4-2.2-0.6-4.6-1-6.8v-0.7l0.4-0.1c0.1,0.5,0.4,1.1,0.4,1.5
		c1,0,2.5,0.6,3.4,0.6c0.1-0.4,0.2-0.9,0.4-1.1c-0.7-0.7-1.4-1.8-2.1-2.6c0.2,1,0,1.4,0,1.7c-0.5-0.2-1.1-0.5-1.7-0.7
		c0.5-0.6,1-1.2,1.7-2c0-1.1-0.6-2.1-2.3-2c0.7-0.2,1.5-0.6,2.3-0.9c0.1,0.4,0.2,0.7,0.4,1c1-1.7-0.5-3.1-0.5-4.8
		c0.1-2.1-1.1-4.2-1.5-6.4c-0.6-3.5-0.5-8.6-0.9-12.1c0-0.2-0.4-0.5-0.6-0.7l-0.9,1.8c0.4,3,0.7,5.9,1,8.9l-0.2,0.1
		c-0.5-2.6-1-5.3-1.6-8.3c-0.1,0.9-0.2,1.2-0.2,1.7c-0.4-0.1-0.5-0.2-1.1-0.5c0.5,1.1,1,1.8,1.4,2.7c-0.9-0.4-1.8-0.2-1.8-0.2v3.4
		c-1.2-1.2-1.6-2.2-2.2-3.1c-0.2-1-0.4-2-0.6-3l0.4-0.1c-0.1-0.5-0.4-0.9-0.4-1.2c-0.1-0.9-0.2-1.8-0.4-3c0.1-0.1,0.6-0.2,0.9-0.5
		l-1-1.5c1,0.1,1.6,0.2,2.2,0.2c0-0.2,0.1-0.4,0-0.5c-1.2-1.1-0.4-2.1,0.1-3.1c0.2-0.5,1.1-0.6,1.4-1.1c1-1.8,2.6-3.3,2.6-5.7
		c0-1.1,0.4-2.3,0.5-3.5c0.2-2.1,0.5-4.2,0.6-6.3c0.2-2.7,0-5.4,0.6-8c1-4.3,2.2-8.6,3.6-12.9c1-3.1,2.1-6,3.3-9.1
		c1.8-4.8,3.6-9.6,5.9-14.2c3.3-6.7,7.1-13.1,10.8-19.6c2.3-4.1,4.8-7.9,7.4-11.8c2.5-3.8,4.9-7.8,7.8-11.3
		c3.9-5.1,8.3-9.7,13.1-13.9c4.9-4.4,9.6-9,14.9-13.1c6.9-5.3,14.2-10,21.9-14c6.3-3.3,12.8-5.9,19.3-8.4c4.2-1.6,8.7-2.3,13.1-3.7
		c4.9-1.6,9.9-2.3,15-2.5c3.3-0.1,6.5-0.5,9.9-0.9c3-0.2,5.9-0.5,9.1-0.9c-0.4,0.5-0.5,0.7-0.6,1c-1.4,2-2.8,3.9-4.2,5.9
		c-1.1,1.6-2.3,3.3-3.5,4.9c-2,2.6-4.1,5.2-5.9,7.9c-2.8,4.1-5.4,8.3-8.4,12.3c-3,3.9-6.2,7.6-9.2,11.5c-4.1,5.3-7.9,10.7-12,16
		c-3.7,5.1-7.6,9.9-11.2,14.9c-3.2,4.4-6,9.1-9.1,13.7c-4.6,6.8-9.1,13.4-13.7,20.2c-3.6,5.2-7.1,10.2-10.8,15.4
		c-0.2,0.4-0.6,0.5-1,0.7c-0.2,0.2-0.7,0.5-0.7,0.7c-0.2,0.9-0.2,1.7-0.6,2.5c-1,1.8-2,3.7-3.1,5.4c-0.6,1-1.5,1.8-2.2,2.8
		c-0.2-0.1-0.4-0.2-0.6-0.2c0.5-1.2,2.6-2,1.6-3.8c-0.6,1-1.2,1.8-1.8,2.8l-1.5,3c0.5,0.4,1.4,0.6,0.5,1.4c-0.4,0.6-0.7,1.4-1.1,2
		l0.2,0.1c0.4-0.5,0.7-0.9,1.1-1.4l0.4,0.1c-0.4,1.2-1.1,2.3-1.7,3.5c-0.5,1-1.7,1.7-2.6,2.5l1.1,0.6c0.4-0.5,0.5-0.2,0.9-0.7
		c0.2,0.4,0.6-0.2,0.7,0.1c0.4-0.5,0.7-0.9,0.9-1.2c0.5-1.2,1.2-2.2,2.5-2.7c0.5-0.2,0.9-0.6,1.2-1c3.7-3.8,7.5-7.5,10.8-11.6
		c5.2-6.3,9.9-12.8,14.8-19.2c2.1-2.7,4.6-5.4,6.8-8c0.2,0.1,0.5,0.1,0.6,0.2c-0.2,2.6-0.5,5.3-0.6,7.9c-0.4,4.6-0.6,9.1-1,13.8
		c-0.1,1.8,0,3.7-0.1,5.5c0,0.5-0.4,0.9-0.4,1.4c0,1.2,0.4,2.6,0.4,3.8c-0.4,4.6-0.9,9-1.2,13.6c-0.1,1,0.4,2,0.6,2.8
		c-0.1-0.1-0.2-0.2-0.6-0.5c0,7.1,1.4,14.2,0.2,21.2c0.5-0.1,0.7-0.2,0.7-0.5c0.1-0.9,0.4-1.7,0.4-2.6c0.1-0.7,0-1.5,0-2.3v-1.2
		c0.1-2.2,0.6-4.6,0.4-6.8c-0.2-2.5-0.2-4.8,0.2-7.1c0.2-1-0.1-2.2,0.5-3.4v1.8c-0.1,7,0.1,14-0.9,21.1c-0.1,0.6,0.4,1.7-1,1.6
		c-0.1,0-0.2,0.6-0.5,1c-0.6,1.2,0.7,2.8-0.5,4.1c-0.2,0.2,0.2,1.4,0.4,2.1c0,0.2,0.1,0.5,0,0.6c-0.5,0.9-0.5,0.9,0.2,1
		c0.1,2.7,0.4,5.2,0.5,7.8h0.4c1.6-4.7,0.6-9.5,1.5-14.3c0.1,2,0.2,3.9,0.1,6c0,3.2-0.1,6.3-0.2,9.5c0,0.6-0.1,1.2-0.2,1.8
		c-0.4,1.7-0.5,3.5-1.1,5.1c-0.5,1.2-0.2,3.1-0.2,4.6v4.7c0,0.1,0.4,0.5,0.4,1c0.1,1.1-0.5,2.2-0.1,3.5c0.1,0.2-0.1,0.6-0.2,0.9
		c-0.1,0.4-0.2,0.7-0.1,1.1l0.4,1.8c0,0.1,0.1,0.2,0.2,0.5c0.1-0.5,0.1-0.9,0.1-1c2.1,0.2,1,2.1,2,3.1c-0.5,0.2-0.9,0.4-0.9,0.5
		c0.1,0.5,0.4,0.9,0.4,1.4c0,1.1-0.1,2.1-0.2,3.2c0,2.8-0.1,5.7-0.1,8.4c0,0.4,0.1,0.7,0.1,1.1c0,0.2-0.1,0.5-0.1,0.9v2.6h0.5
		c-0.2,0.4-0.5,0.7-0.9,1.1l-0.5-0.1v-15.5h-1.8c-0.2,7.4,0.4,14-1,20.9c-1.5,0.1-2,0.4-3.6,0.4c-3.8,0-7.6,0-11.5,0.1
		c-4.6,0-9,0.1-13.6,0.1c-2.2,0-4.6,0.2-6.8,0.2c-3,0-6-0.4-9-0.4c-4.6,0-9,0.4-13.6,0.5c-3.3,0.1-6.7,0.1-10,0.2
		c-2.2,0.1-4.4,0.2-6.7,0.5c-1,0.1-1.8,0.5-3.1,0.9c-0.4,0-1.2-0.1-2,0c-1.2,0.2-2.3,1-3.6,1.2c-1.8,0.4-2.3,0.9-2.1,2.7v1.2
		c-0.2-0.2-0.6-0.5-0.9-0.6l-0.2,0.1c0.1,0.4,0.4,0.6,0.5,1c0.5-0.2,1.1-0.9,1.6-0.9h1.7c-0.2,0-0.4,0.7-0.7,1.4
		c1-0.4,1.6-0.6,2.2-0.9c0.1,0.4,0.1,0.9,0.1,1c1.7-0.1,3.3-0.6,4.8-0.2c4.8,1.2,9.7,1.7,14.7,2.2c3.2,0.2,6.3,0.4,9.5,0.5
		c4.6,0.2,9.1,0.5,13.7,0.5c3.8,0,7.5-0.4,11.3-0.4c5.3,0,10.6,0.2,15.9,0.4c1.1,0,2.3-0.1,3.6-0.1h9c8-0.2,16-0.4,24-0.6
		c4.6-0.1,9.2-0.4,13.8-0.5l14-0.4c5.4-0.1,10.8-0.1,16.1-0.2c4.1,0,8-0.1,12.1-0.2c4.6-0.1,9.2-0.5,13.8-0.7
		c2.5-0.1,4.9-0.4,7.4-0.6c3-0.2,6-0.6,9-0.7c4.4-0.2,9-0.4,13.4-0.6c5.5-0.4,11.1-0.9,16.8-1c5.2-0.2,10.5-0.1,15.6-0.2
		c4.6-0.1,9.1-0.4,13.8-0.5l7.8-0.4c0,0,5.2-0.1,7.8-0.4c4.4-0.2,8.9-0.7,13.3-0.9c2.8-0.1,5.7,0,8.5-0.1c4.6-0.1,9.2-0.4,13.8-0.4
		c1.7,0,3.6,0.2,5.8,0.4c-1,0.9-1.6,1.4-2.3,2c0.5,0.1,1,0.4,1.5,0.6c0,0.1-0.1,0.2-0.1,0.5c-0.6,0-1.2,0.1-1.8,0.1
		c-0.2,0.6-0.5,0.9-0.7,2.1h2.2c-0.9,0-1.6,1.1-2.5,1.8l0.4,0.2c-1.4-0.5-2.2-0.2-2.7,1.1c0.4,0.1,0.6,0.1,1,0.1
		c-0.1,0.4-0.2,0.7-0.4,1.2c-0.1,0.2-0.2,0.5-0.2,0.9l-0.4-0.4c0-0.2,0-0.5-0.1-0.7c-0.7,0.7-1.8,1.2-1.2,2.8
		c-0.5,0.2-1.1,0.5-1.7,0.9c0.1,0.2,0.4,0.5,0.5,0.9c-1.1,0.1-2.2,0.4-2,1.7c0.5,0.1,1,0.4,1.4,0.5c-0.6,0.2-1.2,0.6-1.8,0.9
		c-0.1,0.2-0.2,0.9-0.5,1c-1.7,0.4-0.7,1-0.2,1.6c-0.4,0.2-0.7,0.5-1.1,0.6c0.4,0.1,0.6,0.2,0.9,0.5c-0.4,0.2-0.6,0.4-0.9,0.5
		c0.2,0.1,0.6,0.4,0.7,0.4c-0.5,0.4-1.1,0.9-1.8,1.5c0,0.2,0,0.4,0.1,0.6c-0.5,0.5-1,1-1.5,1.7c-0.5,0.7-0.7,1.7-1.4,2.5
		c-2.6,2.8-4.4,6.2-7.8,8.4c-1.2,0.9-2.3,2-3.5,3.1c-2.2,2.1-4.2,4.4-6.5,6.4c-3.1,2.6-6.3,4.9-9.6,7.3c-4.1,2.8-8.1,5.7-12.2,8.4
		c-2.2,1.5-4.7,2.6-7,3.9c-2.3,1.4-4.6,2.6-6.9,3.9c-1.5,1-2.8,2.3-4.4,3.1c-4.1,1.7-8.4,3.2-12.6,4.8c-0.4,0.1-0.6,0.2-1,0.4
		c-3.1,1.4-6,2.8-9.1,3.9c-2.8,1-5.8,1.7-8.7,2.3c-1,0.2-2.1,0-3.2,0.1c-2.1,0.4-4.2,0.9-6.3,1.1c-5.4,0.7-10.8,1.2-16.3,2
		c-3.2,0.4-6.3,1-9.5,1.4c-2.2,0.1-4.6-0.1-6.8-0.1c-1.6,0-3.3,0.4-4.9,0.1c-2.6-0.4-5.2-1-7.8-1.5c-0.6-0.1-1.5-0.4-2-0.1
		c-1,0.5-1.8-0.2-2.8,0c-0.6,0.1-1.2-0.4-1.8-0.4c-0.5-0.1-1.1,0.1-1.7,0c-1.4-0.4-2.6-0.9-4.1-0.7c-1.5,0.1-3-0.6-4.6-1
		c-2.2-0.5-4.3-1-6.5-1.5c-0.9-0.2-1.6-0.6-2.5-1.1c-0.2,0.1-0.6,0.4-1.1,0.4c-2.1-0.4-4.2-0.5-6.2-1.2c-1.7-0.6-3.3-1.5-5.2-1.2
		c-0.5,0.1-0.9-0.1-1.4-0.1c-0.4-0.5-0.7-1.5-1.1-1.5c-2.5,0.1-3.9-2-6-2.6c-1.1-0.4-2-1.6-3.1-2c-2.7-1.1-4.9-3.5-8-3.8
		c-1-0.1-2-0.6-3.1-1c0.4,0.5,0.6,0.9,1,1.2l-0.2,0.2c-3.3-2-6.7-3.9-10-5.8c-0.5-0.1-0.9-0.6-1.2-0.9l-3.3-2.2
		c-0.4-0.2-1.1-0.6-1.1-0.5c-0.7,0.9-1.5,0.1-2-0.1c-3.3-2.3-7.1-3.8-10.4-6.4c-1.4-1.1-3-1.8-3.9-3.2c-1.7-2.1-3.8-3.6-6.2-4.8
		c-1.8-1-3.6-2.1-5.3-3.2c-0.9-0.6-1.7-1.4-1.7-2.7c0-0.9-0.4-1.7-1.5-1.2c-0.5-0.7-1-1.6-1.6-1.8c-1.5-0.6-2.5-1.7-3.6-2.7
		c-1.1-1-2-2.3-3.3-2.8c-2.5-1-3.9-3.1-5.4-4.8c-3.5-4.1-6.5-8.5-9.7-12.8c-0.2-0.4-0.7-0.6-1.1-1l-0.1,0.1c0.6,1.2,1.2,2.3,1.8,3.6
		l-0.5,0.4c-0.7-0.9-1.6-1.7-2.3-2.6l-0.4,0.2l8.9,14c0.7,1.1,1.4,2.2,2.1,3.3c-0.1,0.1-0.2,0.2-0.5,0.4c-1.4-0.2-2.6-1.2-3.2-2.3
		c-1.1-2-2.3-3.2-4.8-3c-0.2-0.9-0.5-1.8-0.6-2.7c-0.5,0-0.9,0-1.7-0.1c1.7,2.7,3.2,5.1,4.8,7.8c-0.6-0.4-1-0.6-1.2-0.7
		c2.2,2.3,3.8,5.3,6.7,6.8c0.6,2.8,3.8,4.2,4.6,6.9c-0.6-0.1-1.1-0.2-1.7-0.4c-1-1.2-2.1-2.5-3.2-3.8c0.2,0.9,0.6,1.6,1.1,2.2
		c1.5,1.8,2.8,3.7,4.6,5.3c0.6,0.6,1.5,0.9,1.5,2c0.2-0.2,0.5-0.4,1-0.6c-0.2,0.5-0.4,0.7-0.5,1.1c0.5,0,0.9,0.1,1.2,0.1
		c0.2,0.7-0.1,1.8,1.4,1.6l0.4,0.2c0.6,1.6,1.6,1.6,3,1c0.2-0.1,0.9,0,1,0.2c0.6,1.4,1.5,1.5,2.6,0.5c0,0.6,0.1,1.2,0.1,1.7h0.5
		c0-0.2-0.1-0.6-0.1-1.2c0.6,0.5,1,0.7,1.2,1c1.2,1.7,2.3,3.3,4.1,4.7c2.3,2,4.4,4.1,6.7,5.9c4.3,3.6,9.1,6.5,13.9,9.2
		c5.9,3.3,11.6,6.9,17.6,10.1c7.3,3.8,15,6.4,23,8.3c3,0.6,5.8,1.2,8.7,2c2.6,0.7,5.2,1.8,7.8,2.5c3.9,0.9,8,1.6,12,2.3
		c0.9,0.1,1.7,0.2,2.7,0.4v0.2c1.1,0,2.5-0.5,2.7-0.1c0.6,1,1.1,0.5,1.8,0.4c0.9-0.2,1.8-0.2,2.8-0.2c3.5,0.1,6.8,0.9,10.2,0.6
		c0.7,0,1.8-0.6,2.5,0.6c0.2-0.1,0.4-0.2,0.6-0.4c0.5-0.1,1.1-0.1,1.6-0.2v0.2c-0.2,0.1-0.5,0.1-1,0.2c0.6,0.1,1,0.2,1.4,0.4
		c-0.2,0.2-0.4,0.2-0.6,0.4c-0.2,0.1-0.6,0.2-1.1,0.6c4.4,0.9,8.6,1,12.3,0v-0.7h0.5c0,0.2,0.1,0.5,0.2,0.7
		c5.7,0.5,11.2-0.2,16.5-2.1c0.5,0.6,0.9,1.5,1.6,0.2c0.2-0.4,0.9-0.5,1.4-0.6c1.1-0.2,2.5-0.7,3.5-0.4c1.1,0.4,1.5-0.6,2.3-0.6
		c1.5,0,2.8-0.1,4.2-0.4c0.7-0.1,1.5-0.5,2.3-0.7l-0.1-0.4c-0.9-0.1-1.8-0.2-2.6-0.2c1.5-0.7,2.8-1.4,4.2-2l0.1,0.2
		c-0.4,0.1-0.6,0.6-1.1,0.6h1.7c-0.4,0-0.9,1.1-1.5,1.8c4.4-1.1,8.5-2.1,12.4-3.1v-0.2c-0.5,0.1-0.9,0.1-1.2,0.2
		c-0.1-2.6,2.7-1.7,3.7-3.2c-1.2,0.4-2.5,0.7-3.7,1v-0.2c4.2-1.8,8.5-3.7,12.7-5.5l0.1,0.2c-0.7,0.5-1.5,0.9-2.6,1.5
		c0.7,0.1,1.2,0.1,1.6,0.2c0,0.4,0,0.6-0.1,0.7c2.1-0.1,1.6-2,2.2-3.1c0.4,0.1,0.9,0.4,1.2,0.2c1.1-0.2,2.1-0.6,3.2-1
		c1.2-0.4,2.5-0.7,3.7-1.2c2-0.9,3.8-2,5.8-3c0.4-0.1,1,0,1.5,0c0.4,0,0.6-0.2,0.9-0.5c0.5-0.4,1-1.1,1.4-1c1.7,0.2,3-0.4,3.5-2
		l0.2-0.1c0.6-0.5,1.2-1,1.8-1.4c2.7-1.5,5.3-3,8-4.4c0.1-0.1,0.4,0,0.6,0c0.4,0,0.9,0,1.1-0.1c1.6-0.7,3.1-1.6,4.6-2.5
		c-0.4-0.1,0-0.2-1.2-0.4v-0.2c1.2-0.2,1.6-0.4,2.3-0.6l-0.2-0.2c3.2-3.2,7.3-5.5,10.3-8.3c0.6,0.1,0.9,0.2,1.2,0.2
		c0.1-0.4,0.1-0.7,0.1-1c0.5-0.6,1-1.4,1.6-1.8c2.7-2.5,5.7-4.6,8.1-7.1c3.6-3.6,7-7.3,10.2-11.1c3-3.5,5.9-6.9,8.4-10.7
		c3.5-5.3,6.4-10.7,9.5-16.3c2.2-3.9,4.2-7.9,6.4-11.8c0.2-0.4,0.7-0.9,1.1-0.9c3.3-0.4,6.7-0.6,9.9-1c0.7-0.1,1.6-0.6,2.3-1
		c-0.4-0.6-0.6-1.4-1-2c-0.5-0.7-1.2-1.4-1.7-2.1c-0.5-0.6-0.9-1.4-1.2-2.1c-0.4-0.6-0.7-1.1-1.1-1.7c-0.7-1.4-1.5-2.7-2.1-4.2
		c-0.1-0.4-0.4-1-0.2-1.4c2.2-4.8,3.1-10,5.2-14.8c2.1-4.9,2.7-10.5,3.7-15.8c0.9-5.1,1.4-10.1,2-15.2c0.4-3.6,0.9-7,1-10.6
		C432.7,251.1,432.5,245.8,432.4,240.5z M122.6,378c-0.9-1-1.6-2.1-2.5-3.1l0.4-0.4c1.4,1.5,2.7,3,4.1,4.6
		C123.8,378.7,123,378.5,122.6,378z M124.6,379.1c0.4-0.1,0.7-0.1,1.1-0.2c0.4,0.6,0.6,1.4,1,2.1
		C124.9,380.8,124.1,380.1,124.6,379.1z M252.7,430v-0.4c2.3-0.2,4.6-0.5,6.9-0.7v0.4C257.3,429.6,255.1,429.9,252.7,430z
		 M283.8,426.8c-1.7,0.4-3.6,0.6-5.3,0.9c-0.6,0.1-1.4,0.7-1.6-0.4c-0.2,0.1-0.5,0.1-0.7,0.2c0.6,1.8,2.1,0.4,3.3,1.1
		c-2.7,0.4-5.3,0.6-7.9,1v-0.2c0.7-0.1,1.6-0.2,2.3-0.4v-0.4c-1.2-0.1-2.5-0.2-3.7-0.2c-0.4,0-0.9,0.5-1.2,0.6
		c-0.5,0.1-1,0.2-1.6,0.2c-2.1,0.1-4.2,0.1-6.2,0.2l-0.5-0.1V429c8.3-1.1,16.4-2.2,24.6-3.3c0.1,0.2,0.1,0.5,0.2,0.7
		C284.9,426.4,284.4,426.7,283.8,426.8z M285.6,425.6c2.8-0.4,5.4-0.6,8.1-1C288.1,426.2,286.2,426.4,285.6,425.6z M178.3,176.8
		c3.9-5.4,8-10.8,12-16.4c1.2-1.6,2.2-3.3,3.5-4.9c0.4-0.5,0.9-0.7,1.5-1.2L195,154c0.5-0.6,1-1.1,1.2-1.6c0.6-1,1-2.1,1.5-3.2
		c0.1-0.2,0.5-0.5,0.5-0.5c1.7,0.9,1.7-1,2.3-1.6c1.1-1.2,2.2-2.6,3.2-3.8c0.7-1,1.5-1.8,2.1-3c0.1-0.4-0.2-1-0.4-1.5h-0.4
		c0.4-0.2,0.7-0.6,1.1-0.9l0.2-0.1c0.7-1.1,1.5-2.2,2.2-3.2c1.5-2,3.1-3.9,4.8-5.7c-0.2,0.6-0.5,1.2-0.7,1.7l0.2,0.1
		c1.5-2,3.1-3.8,4.6-5.8l-0.4-0.2c-0.6,0.6-1.1,1.2-1.7,1.8l-0.4-0.2c1.2-1.6,2.5-3.2,3.7-5.1c0.2,0.4,0.5,0.9,1,1.8
		c0.5-1.2,1-2.1,1.4-3c-0.4,0.4-0.9,0.7-1.2,1.1l-0.4-0.4l2.2-3.3c2.3-3.3,4.7-6.8,7-10.1c0.9-1.2,2-2.2,2.7-3.4
		c2.3-4.7,6-8.4,8.9-12.7c0.6-0.9,1.5-1.6,2.2-2.3c0.6-0.7,1.1-0.5,1.6,0.1c3.3,4.2,6.7,8.5,10,12.7c2.5,3.1,4.9,6,7.3,9.2
		c2.8,3.9,5.5,7.9,8.4,11.8c3.2,4.6,6.4,9.1,9.5,13.8c4.7,6.9,9.1,13.8,13.8,20.7c3.5,5.1,6.9,10,10.2,15h-6.3
		c-5.8-0.1-11.7-0.6-17.5-0.4c-7.9,0.4-15.9,1.2-23.8,1.8c-10,0.9-20.1,1-30.1,1c-3.6,0-7.1,0.5-10.7,0.7c-4.3,0.2-8.5,0.5-12.8,0.6
		c-5.1,0.2-10,0.4-15,0.5C184.3,176.9,181.4,176.8,178.3,176.8z M319.6,233.5v1.1c-0.1,0-0.2,0.1-0.5,0.1c-0.5-1.7-1-3.6-1.6-5.3
		c-1.2-3.6-2.6-7.1-4.8-10.3c-2.5-3.5-4.7-7-7.1-10.6c-0.6-0.9-1.5-1.6-2.2-2.3c-2.6-2.8-5.2-5.8-8.5-7.9c-4.9-3.1-10-5.7-15.4-7.9
		c-1.5-0.6-2.8-1.4-4.3-2.2h3l21.1-0.4c4.6-0.1,9-0.1,13.6-0.4c1.1,0,1.7,0.4,2.3,1.4c1.1,1.8,2.2,3.7,3.4,5.5
		c0.1,0.2,0.4,0.6,0.4,1c0,2.7,0,5.5,0.1,8.3c0.1,2.8,0.4,5.5,0.5,8.4c0,2.8-0.2,5.8-0.1,8.7C319.5,224.8,319.6,229.2,319.6,233.5z
		 M187,192.2c5.8-0.2,11.3-0.6,17-0.9c4.4-0.2,9-0.4,13.4-0.6c1.8-0.1,3.6-0.2,5.4,0c-2,1-3.9,2-5.7,3.2c-2.2,1.5-4.3,3.4-6.5,5.1
		c-2.2,1.6-4.2,3.6-6,5.7c-2.3,2.8-4.9,5.3-7.4,8c-1.7,2-3.7,3.8-5.2,5.9c-2.1,2.7-3.9,5.7-5.9,8.7C186.8,215.6,187.5,204,187,192.2
		z M267.5,310.7c-3.9,1-8,2.1-12.1,2.6c-3.5,0.5-7,0.4-10.6,0.4c-3.2,0-6.3-0.1-9.5-0.4c-3.6-0.4-7.1-0.7-10.6-2.3
		c-3-1.4-6-2.6-9-4.1c-3-1.5-5.9-3.2-8.1-5.9c-1.6-2-3.8-3.6-5.8-5.3c0.4,1.5,1.2,2.7,2.6,3.6c-0.6,0.7-1.5,0.4-2.7-1.6
		c-0.4,0.2-0.7,0.4-1,0.5c0.4-0.9,0.7-1.7,1.1-2.5c-0.5-1-1.1-2.1-1.6-3.1c-1-1.6-2-3.3-2.8-4.9c-0.2-0.4-0.2-0.7-0.5-1.1
		c-0.6-0.7-1.2-1.5-1.7-2.2c-1-1.5-1.8-3.1-3.1-4.6c0,0.4,0.1,0.7,0.1,1.2l-0.2,0.1l-2.6-6.3l-0.2,0.1l2.2,8.1l-0.4,0.1
		c-0.4-0.5-0.7-1-1-1.6c-0.2-1-1-1-1.6-0.6c-0.4,0.2-0.6,1.1-0.5,1.5c0.9,2.1,1.8,4.2,2.8,6.3c0.2,0.7,0.5,1.4,0.9,2.1
		c0.1,0.2,0.5,0.5,0.5,0.9c0.5,1,0.9,2,1.5,2.8c1.1,1.5,2.3,3,3.5,4.4c1.1,1.5,2.1,3.1,3.1,4.6c0.1,0.2,0.5,0.2,0.6,0.4
		c0.6,1.8,2.7,3.2,4.2,2.5c0.4,2.8,3.4,3.8,4.7,6.5c-1.5-0.6-2.6-1.1-3.6-1.6c-0.1,0.1-0.1,0.2-0.2,0.5c1.5,0.7,3,1.5,4.3,2.3
		c1.2,0.7,2.5,1.5,3.6,2.3c1.5,1.4,3.2,2.1,5.3,2.6c-0.1-0.4-0.2-0.5-0.2-0.5c3.4,1.6,7,3.3,9.7,4.7c-12.8,0.2-26.5,0.5-40.7,0.7
		c0-2.3-0.1-4.6-0.1-6.9c0-1,0.2-1.8,0.1-2.8c-0.4-5.7-0.4-11.3-1.1-16.9c-0.7-5.9-0.7-11.7-0.6-17.6c0.1-3.2-0.1-6.5-0.2-9.7
		c0-4.3,0-8.5,0.1-12.8c0-0.6,0.2-1.1,0.5-1.7h0.4c0.1,0.2,0,0.6,0.2,0.7c0.4,0.4,1,1,1.2,0.9c0.7-0.5,1.8-1,2.1-1.7
		c0.6-1.5,0.9-3.1,0.9-4.6c0-1.1,0.5-1.8,1-2.6c0.2-0.4,0.4-0.7,0.6-1.2c-0.5-0.4-1-0.6-1.6-1.1c0.5-1.4,0.4-3,2.2-3.7
		c0.2-0.1,0.2-0.7,0.4-1.1c0.1-1,0.2-2.1,0.4-3.1c0.2,0.4,0.4,0.5,0.6,0.7c0.1-0.2,0.2-0.4,0.2-0.4c0-0.5-0.1-1.5,0-1.5
		c1.5-0.2,0.9-1.8,1.6-2.6c0.1-0.1-0.1-0.5-0.1-0.7c0-0.2,0-0.6,0.1-0.6c1.7-0.4,1.5-2.2,2.6-3.1c0.4-0.2,0.5-0.6,1-1.2
		c1,1.7-0.7,2.6-0.9,3.8c2.1-1.2,2.7-4.2,1.5-5.1c0.5-0.4,1-0.9,1.4-1.4c1.4-1.5,2.8-2.8,4.1-4.3c0.9-1.1,1.4-2.5,2.2-3.6
		c0.5-0.6,1.5-1.1,2.2-1.5c2.2-1.2,4.3-2.6,5.7-4.7c0.2-0.2,0.6-0.5,1-0.7c0.4-0.2,1.1-0.2,1.2-0.6c0.1-0.2-0.2-0.9-0.5-1.2
		c0.5-0.2,1-0.7,2-1.2c-0.4,0.7-0.5,1.2-0.7,1.7l0.6,0.6c1.1-0.9,2.8-1.8,3.9-2.6l-0.6-0.6c-0.7,0.4-1.8,1-3,1.5
		c0.2-0.4,0.2-0.6,0.4-0.7c1.7-1.1,3.5-2.2,5.3-3.1c4.3-2,8.6-3.9,12.9-5.8c0.7-0.4,1.7-0.1,2.6-0.1c0.4,0,0.6,0,1-0.1
		c2-0.6,3.9-1.2,5.9-1.7c0.9-0.2,1.8-0.4,2.7-0.4c3.7,0.1,7.4,0.1,11.1,0.4c1.6,0.1,3.1,0.5,4.6,1c1.8,0.6,3.8,1.5,5.5,2.3
		c2.1,1.1,4.1,2.3,6,3.7c3.6,2.3,6.9,4.9,10.5,7c3.5,2.1,6.2,4.9,8.4,8.1c2.7,3.8,5.8,7.3,7,12l1.8,8.1c0.4,1.5,1.2,3,0.9,4.7
		c-0.6,3.1-1.1,6.3-1.6,9.4c-0.2,1.2-0.5,2.5-0.4,3.7c0.2,3.8-1.2,7.1-2.7,10.6c-0.5,1.1-1.2,2.2-1.8,3.5l1,0.5l1.1-2.2l0.2,0.1
		c-0.6,1.7-1.1,3.6-1.7,5.3c-1.5,3.8-3,7.8-4.8,11.5c-1,2.1-2.7,3.8-3.9,5.8c-1.2,1.7-2.2,3.6-3.5,5.2c-1.1,1.4-2.2,2.7-3.7,3.7
		c-3.3,2.5-6.8,4.9-10.3,6.9C272.5,309.4,270,310.1,267.5,310.7z M201.8,304.2l-0.1,0.1c-0.2-0.1-0.6-0.2-0.9-0.5l-3-4.4
		c-0.2-0.4-0.4-0.7-0.2-1.2C199,300.2,200.3,302.2,201.8,304.2z M278.5,321.1c5.5-2.3,10.1-5.7,14.3-9.5c0.6-0.6,1.2-1.2,2-1.7
		c5.2-3.2,9-7.6,12.4-12.6c3.9-5.7,6.5-12.1,9.7-18.1c0.2-0.5,0.5-1,0.7-1.4c-0.2,14,1.4,27.8,3.2,41.8
		C306.9,320.1,292.8,320.6,278.5,321.1z M403.4,317.4c-0.1,0.2-0.4,0.5-0.5,0.7c-0.1-0.2-0.1-0.6-0.2-1.1c-0.7,2-2.3,1-3.5,1
		c-6.7,0.1-13.4,0.1-20.1,0.1c-6.4,0-12.9,0-19.3,0.1c-2.1,0-4.3,0.5-6.4,0.6c-5.1,0.2-10.1,0.4-15.2,0.5c-0.4,0-0.7-0.6-1.4-1.1
		c-0.1,0.2-0.4,0.6-0.7,1.1c-0.1-0.2-0.4-0.5-0.6-0.9c-0.1,0.4-0.2,0.7-0.4,1h-0.4c-0.2-1.7-0.7-3.3-0.7-5.1c0-3.7,0.4-7.4,0.5-11.1
		c0.1-1.7,0-3.3,0-4.9c0.5,0.4,0.9,0.6,1.4,1c0.2-0.5,0.5-0.9,0.7-1.2c0,0-0.2-0.1-0.5-0.4c0.2-0.1,0.5-0.4,0.5-0.5
		c0.1-0.4,0.4-0.7,0.4-1c0-0.9-0.2-1.6-0.4-2.3l0.4-0.1l0.7,3.7h0.4c-0.5-0.9,1.1-1.6-0.2-2.6c-0.1-0.1,0.1-0.9,0.1-1.2
		c-0.4-0.7-0.6-1.5-1-2.5c0.1-0.1,0.5-0.2,0.9-0.4c-0.5-0.2-0.9-0.5-1.2-0.6c1.2-1.1,1.2-1.7,0.1-3c0.2-0.1,0.5-0.1,0.5-0.2
		c0-1.1,0-2.2-0.2-3.3c-0.2-1.2,0.4-2.7-1.5-3.4c0.1,0.4,0.2,0.6,0.5,1c0,0-0.4,0.1-0.7,0.4c-1.6-1.5-0.6-3.5-1-5.7
		c0.9,0.2,1.5,0.5,2.1,0.7c-0.2-0.9-0.9-1.8-1.2-3h-0.5v-8.1c0,0.1,0.9,0.1,1.4,0.2l0.1-0.4c-0.4-0.5-0.9-1-1.4-1.6l0.2-0.2
		c-1-1.2-0.5-3-0.5-3.3v-8.6c1.2,1.2-0.6,2.8,1.2,3.6V254h-0.1c-0.1-1.8-0.1-3.7-0.2-5.5h-0.2c-0.1,0.2-0.1,0.4-0.2,0.6h-0.2
		c0.2-9.7,0.5-19.5,0.7-29.4c1.2,1.6,2.6,3.1,3.5,4.7c2.8,5.2,6.5,9.6,10,14.3c3,4.1,5.7,8.5,8.4,12.7c3.3,5.1,6.5,10.1,9.9,15.2
		c2.5,3.8,5.1,7.6,7.6,11.3c2.3,3.3,4.8,6.5,7.3,9.7c2.1,2.8,4.3,5.7,6.4,8.5c2.5,3.5,4.9,6.9,7.4,10.2c1.2,1.7,2.6,3.5,3.9,5.2
		c0.7,1,1.8,1.7,2.6,2.3c-0.1,0-0.2,0-0.5-0.1c0.4,0.5,0.6,0.9,0.9,1.1C404,315.5,404.1,316.3,403.4,317.4z M409.7,286.6v-0.9
		C409.7,286,409.8,286.3,409.7,286.6z M413.9,232.2l-1-0.9c-0.1,0.4,0,0.7-0.2,1.2c-0.1-0.4-1-0.2-1-0.6c-0.1,1.7,0.7,3.5,0.6,5.2
		c0.4-0.2,1.8-0.4,2.2-0.7l0.5,0.2c-2.5,1.8-1.8,3.7-0.7,5.8c0.2,0.5,1,1.5,0.2,2.5c-0.2,0.2,0.1,1,0.2,1.6h0.4v0.2l-1.1,0.4
		c-0.2-0.4-1.7-1.1-1.7-1.7v6.3c1.2,0.4,1.2,2.1,1.7,3c0.2-0.4,0.4-0.6,0.5-1l0.1,0.1c-0.1,0.7-0.2,1.5-0.5,2.2
		c-0.2,1.1-0.5,2.1-0.6,3.2l0.2,0.5c-1.4,3.1-0.6,6.5-1.1,9.7c-0.4,2.3,0,4.8-0.2,7.3c-0.2,2.1-0.7,4.3-1.2,6.4
		c-0.1,0.4-0.4,0.5-1,0.7c0.2-1.5,0.1-2.5-0.1-3.8l-1.8-0.9c0,1.7,1,4.1,1.4,6c-0.4-0.1-1.8-1-2-1c-0.2,1.5-0.2,3.5-0.4,5.1
		c-0.1,1.2-1.2,2.3-1.4,3.7c0,0.7,0.9,1.2,0.7,2.5h1c0-2.5,1.1-4.7,1.1-7.3h0.4c0.1,0.2,0.5,0.5,0.4,0.6c-0.2,1.4-0.7,2.8-0.6,4.2
		c0,0.7,0.6,1.5,0.4,2.3c-0.2,0.7-0.4,1.5-0.5,2.6c-0.1-0.6-0.2-0.9-0.2-1.2l-1.4-0.1c-0.1,0.7,0.9,1.5,0.7,2.1
		c-0.1,0.1-0.2,0.1-0.5,0.2l-4.1-5.9c-3.2-4.7-6.4-9.4-9.6-14.2c-0.9-1.2-1.6-2.5-2.2-3.7c-3.8-6.5-8-12.8-12.7-18.9
		c-3.6-4.6-6.4-9.5-9.7-14.3c-3.1-4.6-6.2-9-9.2-13.6c-1.1-1.5-2.5-2.8-3.5-4.4c-3.2-5.1-6-10.2-9.2-15.3c-2.7-4.2-5.7-8.3-8.5-12.3
		c-1-1.4-2-2.8-3-4.3c-0.1-0.2-0.2-0.5-0.2-0.9c-0.2-2.7-0.5-5.4-0.6-8c0-2.5,0.2-4.9,0.2-7.5v-2.2c0-0.6,0.1-1.1,0.1-1.7l0.4-0.5
		c-3.6,0-7.3-0.1-10.8,0c-2.3,0.1-3.6-0.9-5.2-2.6c-4.7-5.3-8.1-11.3-12.2-17c-3.8-5.4-7.8-10.7-11.7-16c-3.2-4.3-6.4-8.5-9.6-12.8
		c-3.6-4.9-7-9.9-10.7-14.8c-4.4-5.9-9-11.8-13.6-17.7c-2.1-2.7-4.4-5.3-6.8-8.1c1.6,0.2,3.1,0.5,4.6,0.6l5.9,0.4
		c4.4,0.4,8.9,0.6,13.3,1.2c3.7,0.5,7.4,1.2,11.2,1.8c8.1,1.4,16.1,3.6,23.9,6.2c4.6,1.5,9,3.5,13.4,5.3c10,4.1,19.5,9,28.8,14.2
		c3,1.6,4.7,4.2,6.9,6.5c3.2,3.3,6.4,6.7,9.5,10.1c3.6,4.1,6.9,8.3,10.3,12.4c3.1,3.7,6.3,7.4,9.4,11.1c1,1.1,1.7,2.5,2.6,3.7
		c2,3,4.2,5.8,5.9,9c1.2,2.3,2,5.1,2.8,7.6c1.2,3.8,2.5,7.5,3.7,11.3c0.9,2.8,1.6,5.8,2.2,8.7c0.5,2,0.4,4.1,1,6
		c0.7,2.6,0,5.4,0.7,8c0.1,0.2,0.2,0.6,0.4,0.9c0.5,0.5,0.9,1,0.1,1.7c-0.1,0.1-0.1,0.6,0,1c0.2-0.2,0.4-0.5,0.6-0.9
		c0,0.2,0.1,0.4,0.1,0.5c0,0.5-0.1,1,0,1.5c0,0.2,0.2,0.6,0.4,0.9c0.2-0.2,0.5-0.4,1-0.7c1.1,4.2,1.2,8.4,1.2,12.7
		c0,4.1,0.7,8.1-1,12.1C414.4,234.7,413.5,233.5,413.9,232.2z"/>
	<path id="XMLID_18_" class="st0" d="M335.5,280.6l0.2,0.1l-0.1-0.1H335.5z M355,402.3c-1.4,1-2.7,1.8-4.4,2.2l-0.2-0.4
		c1.4-0.9,2.8-1.7,4.2-2.6C354.6,401.8,354.9,402,355,402.3z M124,235.3c1.4-1.7,2.7-3.5,4.2-5.2l1.2,0.5c-1.4,1.7-3.2,4.1-4.6,5.9
		C124.6,236.3,124.2,235.5,124,235.3z M89,295.7c-1-2.1-2-4.3-3-6.4l1.1-0.5c1.4,2,2,4.3,3,6.4L89,295.7z M120.4,236.6
		c-0.7,1.1-1.5,2.3-2.2,3.5l-1.6,0.4c0.7-1.1,2.6-3.1,3.3-4.2C120,236.3,120.2,236.4,120.4,236.6z M341.8,407.3l0.2-0.1
		c0.9,0.1,1.8,0.2,2.8,0.2C343.3,408.6,342.3,408.5,341.8,407.3z M120.7,241.7c0.1-0.4,0.4-0.7,0.6-1.1c0.2,0,0.6-0.1,0.6-0.1
		c0.5-0.9,0.5-1.5,1-2.2l-0.4-0.2c-0.7,0.5-1.5,1.1-2.2,1.6c0.2,0.2,0.2,0.4,0.2,0.6c-1-0.1-1.4,0.4-1.8,1.7c-0.1,0.4-0.7,0.5-1.4,1
		c-0.1,0.2-0.2,0.9-0.5,1.5l0.1,0.1c-0.2,0.2-0.6,0.4-0.6,0.4c-0.7,0.7-1.6,1.4-2.3,2.1c-0.1,0.4-0.2,0.7-0.2,1.1
		c0.9-0.9,2.3-2.5,3.5-3.5l0.1,0.1c0.5-0.7,0.9-1.5,1.4-2.2l0.2,0.4c-0.4,1-0.7,2.1-1.1,3.1c-0.2,0.1-0.6,0.4-0.6,0.2
		c-0.5,0.4-0.9,0.9-1.4,1.2l-2.2,1.5c-1.2,1.1-2.5,2.1-3.8,3.2c-0.9,1.4-1.7,2.6-2.7,4.2c1.5-0.4,1.8,0.2,1.7,1.5
		c1.7,0.2,1.8-1.1,2.3-2.1c0.1-0.2,0.2-0.7,0.5-0.9c1.1-1,2.3-1.8,3.6-2.8c0.2-0.2,0.2-0.7,0.2-1.1c0-0.1-0.6-0.1-1-0.2
		c1.1-1.2,2.7-3.3,3.8-4.7c0.6-0.4,1.2-0.9,1.2-1.2c-0.1-1.4,0.7-1.7,1.7-2.2C120.8,242.2,120.7,241.9,120.7,241.7z"/>
	<path id="XMLID_26_" class="st0" d="M123.1,240.4c-0.5,0.9-1,1.6-1.5,2.5l-0.7-0.4c-0.5,2.8-2.2,5.3-3.9,5.8c0.5,0.2,1,0.5,1.4,0.4
		c0.4-0.1,0.6-0.7,0.9-1.1l3.3-4.8l1.1-1.8L123.1,240.4z M82.1,294.5c0.6,0,1.2,0.1,2,0.1c0-0.5,0.6-0.4,0.6-0.9h0.4
		c0,0.6,0.1,1.1,0.1,1.7h-2.6L82.1,294.5z M81.1,288.8c-0.4-0.4-1-0.7-1-1.1c-0.1-0.5,0.2-1.1,0.6-1.7c0.2,0.9,0.4,1.6,0.6,2.5
		L81.1,288.8z M84.2,280.9c0.5,1.2,1,2.6,1.5,3.8l-1,0.5c-0.5-1.2-1.1-2.6-1.6-3.8C83.2,281.3,83.9,280.9,84.2,280.9z M358.5,398.7
		c0.6-0.2,1.4-0.4,2.3-0.6c-1.1,0.9-2,1.5-2.7,2.2l-0.4-0.2C358,399.6,358.2,399.2,358.5,398.7L358.5,398.7z M207,138.4
		c0.7-0.5,1.4-0.9,2.1-1.4l0.2,0.2c-0.7,1-1.4,2-2.2,3.2c-0.1-0.9-0.1-1.4-0.2-2L207,138.4z M243.1,200.7c1.1-0.5,2.2-1,3.6-1.6
		c-0.1,0.7-0.1,1.2-0.1,1.7c-0.4-0.1-0.9-0.2-1.2-0.2c-0.7,0.1-2.1,1.1-2.7,1.2L243.1,200.7z M335.5,305.2c0.2,1.2,2.6,1.8,0.2,3.1
		c0.4,0.2,0.7,0.4,1.1,0.6l-0.2,0.5c-0.2,0.1-0.7,0.4-1,0.2c-0.1,0-0.4-0.5-0.4-0.7C335.3,307.8,335.4,306.7,335.5,305.2z"/>
</g>
</svg>
