<svg xmlns="http://www.w3.org/2000/svg" viewBox="0 0 12000 11820">
  <g fill="rgb(147,204,250)">
    <g>
      <path d="M3015 1790 c-117 -6 -225 -26 -225 -41 0 -4 -17 -13 -37 -20 -21 -6 -43 -15 -48 -20 -6 -4 -39 -11 -75 -15 -36 -4 -69 -12 -73 -18 -6 -8 -10 -7 -14 2 -6 14 -33 16 -33 2 0 -5 -15 -10 -34 -10 -19 0 -38 -5 -41 -10 -3 -6 -26 -10 -50 -10 -57 0 -185 -22 -185 -31 0 -4 -20 -11 -45 -15 -53 -7 -60 -24 -11 -24 56 0 190 21 196 31 3 5 57 13 120 19 63 5 142 14 175 20 33 5 81 10 108 10 26 0 47 4 47 9 0 4 17 11 38 14 106 17 237 48 240 57 2 5 13 10 24 10 29 0 161 32 173 42 10 9 -61 8 -250 -2z"></path>
    </g>
  </g>
  <g fill="rgb(253,228,109)">
    <g>
      <path d="M5645 770 c-41 -11 -99 -34 -105 -41 -10 -12 -49 -29 -67 -29 -10 0 -25 -5 -33 -10 -13 -9 -13 -11 0 -20 8 -5 25 -10 38 -10 12 0 22 -4 22 -8 0 -8 159 -39 290 -58 25 -4 47 -10 50 -14 3 -4 84 -20 180 -35 96 -16 177 -31 180 -35 3 -3 46 -12 95 -19 50 -7 118 -19 153 -26 54 -11 62 -11 62 3 0 18 -29 41 -52 42 -10 0 -18 4 -18 9 0 5 -44 16 -97 26 -90 16 -130 28 -143 44 -6 7 -58 27 -125 48 -27 8 -52 19 -55 23 -3 4 -45 20 -95 36 -49 16 -93 32 -96 37 -6 9 -128 47 -144 46 -5 -1 -23 -5 -40 -9z"></path>
      <path d="M7130 407 c-25 -6 -51 -17 -58 -24 -8 -8 -38 -13 -75 -13 -90 0 -58 -14 81 -36 67 -10 122 -21 122 -25 0 -4 21 -10 48 -13 131 -19 308 -50 312 -56 3 -4 85 -19 183 -35 97 -16 177 -32 177 -37 0 -4 11 -8 24 -8 36 0 310 -51 316 -59 7 -10 221 -42 310 -47 84 -5 137 14 151 53 8 22 6 23 -64 25 -40 1 -99 3 -133 3 -34 0 -67 5 -75 11 -8 7 -38 15 -66 19 -29 4 -53 11 -53 16 0 5 -9 9 -20 9 -12 0 -33 6 -48 14 -45 22 -100 29 -245 30 -82 1 -141 5 -145 11 -7 11 -76 33 -172 56 -30 8 -60 19 -67 25 -7 6 -29 15 -50 18 -47 9 -136 37 -143 45 -9 11 -148 31 -208 30 -31 -1 -77 -6 -102 -12z"></path>
    </g>
  </g>
  <g fill="rgb(254,220,61)">
    <g>
      <path d="M4578 2399 c-27 -27 -56 -50 -65 -51 -27 -2 -83 13 -83 23 0 5 -13 9 -28 9 l-28 0 4 -142 c3 -79 8 -145 12 -148 14 -9 40 -368 61 -847 7 -156 16 -283 21 -283 4 0 8 -11 8 -25 0 -29 52 -89 91 -103 13 -5 63 -15 112 -22 48 -7 87 -16 87 -20 0 -4 39 -12 88 -19 167 -23 297 -45 302 -51 3 -4 62 -17 133 -30 96 -17 134 -20 155 -12 15 6 39 13 54 16 15 3 33 12 40 19 15 13 66 35 116 47 32 8 148 -19 161 -37 3 -5 47 -21 96 -37 50 -16 92 -32 95 -36 3 -4 28 -15 55 -23 67 -21 119 -41 125 -48 13 -16 53 -28 143 -44 53 -10 97 -21 97 -26 0 -5 8 -9 18 -9 21 -1 52 -23 52 -39 0 -6 11 -11 24 -11 13 0 26 -3 28 -8 2 -4 66 -18 143 -31 77 -13 143 -28 146 -33 4 -6 56 -13 116 -15 86 -5 112 -3 123 9 18 17 107 38 161 38 47 0 182 -22 189 -31 7 -8 96 -36 143 -45 21 -3 43 -12 50 -18 7 -6 37 -17 67 -25 79 -19 164 -44 170 -51 14 -16 103 -26 156 -18 65 10 192 -5 236 -28 15 -8 36 -14 48 -14 11 0 20 -4 20 -9 0 -5 24 -12 53 -16 28 -4 58 -12 65 -18 20 -16 284 -21 294 -5 14 23 8 98 -14 187 -13 47 -25 88 -28 91 -3 3 -19 61 -34 130 -16 69 -32 127 -36 130 -8 6 -50 167 -50 192 0 9 -4 18 -10 20 -5 2 -22 53 -37 113 -15 61 -31 112 -35 113 -5 2 -8 13 -8 25 0 27 -51 210 -61 217 -4 3 -17 46 -29 95 -27 114 -31 124 -37 108 -7 -20 -31 -15 -38 7 -3 11 -14 20 -23 20 -10 0 -13 3 -6 8 17 11 24 40 18 70 -5 26 -59 72 -84 72 -13 0 -69 56 -93 93 -9 15 -24 27 -31 27 -7 0 -19 7 -26 15 -7 8 -21 15 -31 15 -15 0 -19 -7 -19 -35 l0 -35 -91 0 c-81 0 -94 -3 -123 -25 -23 -17 -46 -25 -74 -25 -38 0 -42 -3 -42 -24 0 -13 7 -29 15 -36 8 -7 15 -21 15 -32 0 -11 7 -26 15 -34 21 -22 20 -48 -2 -39 -50 21 -63 18 -103 -23 l-39 -41 -6 53 c-6 43 -13 60 -41 86 -27 25 -34 40 -34 68 0 52 -12 66 -46 58 -28 -7 -89 -14 -144 -17 -31 -1 -143 31 -152 45 -3 5 -33 10 -65 10 -48 1 -63 -3 -83 -22 -13 -12 -29 -22 -36 -22 -6 0 -17 -7 -24 -15 -21 -26 -45 -17 -60 20 -20 50 -71 87 -116 83 -19 -1 -38 3 -42 9 -4 7 -28 15 -52 19 -25 3 -73 15 -108 25 -41 12 -92 19 -144 18 -50 -1 -83 3 -88 10 -11 20 -152 63 -180 56 -14 -4 -72 -6 -128 -6 -107 0 -135 -8 -172 -50 -8 -9 -39 -24 -68 -34 -50 -16 -54 -16 -80 1 -15 10 -39 30 -54 46 -14 15 -32 28 -40 28 -8 0 -20 11 -26 25 -19 40 -53 51 -102 31 -48 -19 -47 -19 -117 52 -23 23 -49 42 -58 42 -8 0 -15 5 -15 10 0 6 -28 10 -63 10 -53 0 -64 -3 -75 -21 -12 -18 -20 -21 -55 -16 -23 3 -46 13 -53 21 -9 13 -31 16 -100 16 -51 0 -111 7 -139 15 -27 9 -67 20 -87 26 l-38 10 0 60 c0 44 -4 61 -15 65 -8 4 -15 13 -15 22 0 27 -23 82 -35 81 -5 0 -31 -23 -57 -50z"></path>
    </g>
  </g>
  <g fill="rgb(77,192,253)">
    <g>
      <path d="M1040 2531 c-14 -4 -40 -11 -57 -15 -18 -5 -33 -12 -33 -16 0 -4 -12 -11 -27 -15 -21 -5 -31 -2 -43 14 -12 16 -28 22 -70 24 -51 2 -55 0 -69 -28 -8 -16 -18 -32 -22 -35 -5 -3 -20 -32 -35 -65 -15 -33 -34 -66 -41 -73 -7 -8 -23 -36 -34 -63 -12 -27 -25 -49 -28 -49 -4 0 -18 -21 -31 -47 -12 -27 -28 -52 -34 -58 -6 -5 -24 -36 -39 -67 -15 -32 -31 -58 -36 -58 -4 0 -21 -31 -36 -70 -15 -38 -31 -70 -34 -70 -4 0 -17 -24 -31 -52 -13 -29 -30 -57 -36 -63 -33 -27 -44 -164 -20 -233 15 -43 104 -137 140 -148 12 -4 24 -12 28 -18 10 -15 227 -14 236 0 4 6 30 14 57 17 141 18 351 52 355 58 3 3 102 19 220 34 118 15 217 30 220 35 5 8 132 30 288 51 50 6 92 15 92 19 0 4 33 12 73 19 94 15 211 43 217 51 3 4 22 10 44 13 47 7 56 15 34 28 -24 13 -98 86 -98 96 0 4 -18 28 -40 52 -22 24 -40 50 -40 58 0 7 -7 16 -15 19 -9 4 -15 19 -15 35 0 22 -6 30 -25 35 -14 3 -25 9 -25 14 0 4 -19 13 -42 19 -29 9 -60 31 -95 67 -51 52 -54 54 -107 54 -48 0 -58 -4 -86 -31 -23 -24 -36 -30 -53 -24 -12 3 -58 9 -102 12 l-80 6 -52 53 c-47 47 -53 59 -53 94 0 39 -6 47 -90 131 -52 51 -90 97 -90 108 0 70 -60 104 -140 82z"></path>
    </g>
  </g>
  <g fill="rgb(97,166,254)">
    <g>
      <path d="M2160 4982 c-8 -9 -28 -44 -44 -77 -16 -33 -32 -62 -36 -65 -3 -3 -20 -32 -35 -65 -16 -33 -32 -61 -36 -63 -4 -2 -20 -27 -35 -55 -14 -29 -30 -54 -34 -57 -4 -3 -19 -27 -35 -55 -15 -27 -30 -52 -34 -55 -4 -3 -18 -30 -30 -60 -13 -30 -27 -57 -31 -60 -3 -3 -20 -30 -36 -60 -16 -30 -33 -60 -39 -66 -5 -6 -21 -35 -35 -65 -14 -30 -28 -55 -32 -57 -4 -2 -19 -27 -34 -55 -14 -29 -29 -54 -32 -57 -4 -3 -18 -29 -32 -59 -14 -30 -29 -59 -35 -66 -5 -6 -21 -33 -35 -60 -14 -27 -33 -58 -42 -67 -10 -10 -18 -24 -18 -32 0 -7 -10 -24 -22 -37 -13 -14 -36 -52 -52 -84 -16 -33 -32 -62 -35 -65 -3 -3 -19 -32 -35 -65 -16 -33 -32 -62 -36 -65 -4 -3 -19 -32 -34 -65 -15 -33 -31 -62 -35 -65 -5 -3 -20 -31 -35 -62 -15 -32 -31 -58 -35 -58 -4 0 -16 -19 -27 -41 -10 -23 -23 -47 -29 -53 -5 -6 -23 -38 -39 -71 -16 -33 -33 -62 -36 -65 -4 -3 -19 -31 -34 -62 -15 -32 -31 -58 -36 -58 -4 0 -13 -12 -19 -27 -11 -31 -42 -85 -53 -93 -4 -3 -16 -26 -26 -51 -11 -25 -26 -52 -35 -60 -8 -8 -17 -24 -21 -36 -6 -18 -1 -21 41 -28 31 -4 54 -14 64 -27 13 -17 23 -20 53 -14 20 4 36 11 36 15 0 5 10 11 23 14 12 3 40 10 62 16 73 19 125 -14 125 -80 0 -11 38 -57 90 -108 84 -84 90 -92 90 -131 0 -36 6 -47 55 -96 l55 -56 72 -3 c40 -1 90 -6 110 -10 33 -7 40 -4 68 24 26 25 40 31 76 31 41 0 49 -5 97 -54 35 -36 66 -58 95 -67 23 -6 42 -15 42 -19 0 -5 10 -10 23 -14 16 -4 23 -14 25 -33 1 -15 9 -31 17 -36 8 -4 15 -14 15 -21 0 -8 18 -33 40 -57 22 -24 40 -48 40 -52 0 -9 57 -67 88 -88 17 -13 39 -15 95 -11 40 2 76 8 81 13 6 5 24 9 42 9 18 0 35 6 37 13 4 10 6 10 6 0 1 -14 41 -18 41 -4 0 4 30 11 67 15 37 4 72 11 78 15 5 5 27 14 48 20 20 7 37 16 37 20 0 18 171 41 380 50 135 6 226 15 228 21 2 5 15 10 30 10 40 0 356 52 362 60 7 9 112 26 288 46 78 10 142 20 142 24 0 4 24 10 53 14 28 4 69 11 90 17 37 10 37 10 37 64 0 29 -4 55 -10 57 -6 2 -10 73 -10 183 0 99 -6 282 -12 408 l-11 227 -29 0 c-15 0 -28 -3 -28 -8 0 -4 -15 -16 -34 -26 -19 -10 -36 -26 -39 -35 -2 -10 -20 -25 -39 -34 -20 -9 -43 -28 -52 -42 -22 -34 -50 -34 -42 0 9 35 -18 95 -42 95 -21 0 -32 18 -32 50 0 30 -38 51 -81 44 -35 -6 -38 -5 -41 22 -2 22 -10 31 -34 38 -25 8 -33 17 -43 54 -9 34 -28 60 -88 118 -42 41 -82 74 -88 74 -7 0 -20 9 -30 20 -10 11 -22 20 -26 20 -4 0 -21 14 -37 30 -32 32 -62 37 -119 21 -20 -6 -35 -6 -38 0 -4 5 -13 9 -22 9 -18 0 -105 -39 -113 -51 -3 -4 -22 -11 -42 -17 -30 -8 -38 -8 -38 3 0 30 14 45 46 51 19 3 34 10 34 15 0 5 15 9 33 9 18 0 38 5 45 12 27 27 3 136 -35 161 -7 4 -13 16 -13 26 0 40 -34 97 -94 155 -35 34 -66 73 -70 89 -3 15 -13 27 -21 27 -8 0 -15 6 -15 13 0 8 -17 30 -37 50 -21 20 -56 57 -78 82 -21 25 -47 45 -56 45 -10 0 -32 -16 -51 -35 -18 -20 -50 -40 -70 -46 -21 -5 -38 -14 -38 -19 0 -6 -6 -10 -14 -10 -7 0 -25 -9 -40 -21 -14 -11 -31 -17 -36 -14 -20 13 -59 -4 -63 -28 -4 -22 -4 -22 -14 3 -8 18 -7 27 1 32 6 4 10 31 9 65 -2 32 -4 99 -7 148 -3 91 -19 145 -41 145 -7 0 -20 11 -29 25 -12 18 -25 25 -49 25 -43 0 -109 -19 -122 -35 -18 -24 -53 -28 -59 -7 -6 18 -57 42 -92 42 -23 0 -128 99 -150 142 -14 27 -14 32 0 53 9 14 16 33 16 45 0 11 5 20 10 20 6 0 10 18 10 39 0 22 4 42 9 45 5 3 12 23 15 43 14 81 18 91 35 96 28 7 48 130 29 174 -13 30 -15 31 -28 15z"></path>
    </g>
  </g>
  <g fill="rgb(115,144,253)">
    <g>
      <path d="M2592 5738 c-5 -7 -13 -23 -16 -35 -4 -13 -11 -23 -16 -23 -5 0 -22 -26 -36 -57 -15 -32 -31 -60 -35 -63 -4 -3 -20 -30 -35 -60 -15 -30 -30 -57 -34 -60 -4 -3 -20 -29 -35 -57 -15 -29 -30 -53 -34 -53 -4 0 -19 -29 -35 -65 -15 -36 -32 -65 -36 -65 -5 0 -13 -15 -19 -33 -7 -19 -19 -42 -29 -53 -22 -25 -62 -107 -62 -128 0 -10 5 -26 10 -37 8 -14 7 -37 -1 -80 -10 -49 -17 -62 -36 -70 -13 -5 -22 -12 -21 -16 5 -18 -13 -113 -22 -118 -6 -3 -10 -24 -10 -46 0 -21 -4 -39 -10 -39 -5 0 -10 -9 -10 -19 0 -11 -8 -33 -17 -49 -14 -25 -15 -33 -4 -60 18 -42 130 -152 155 -152 35 0 86 -24 92 -43 5 -15 12 -18 38 -13 17 3 36 13 42 21 7 9 37 21 69 28 57 11 57 11 79 -16 12 -15 26 -27 32 -27 22 0 37 -59 41 -170 7 -157 7 -162 -11 -172 -14 -8 -13 -12 2 -40 23 -41 42 -47 42 -15 0 28 17 38 49 30 12 -3 31 3 47 16 15 12 33 21 40 21 8 0 14 4 14 10 0 5 17 14 38 19 20 6 52 26 70 46 19 19 37 35 41 35 4 0 25 -20 46 -45 22 -25 57 -62 78 -82 20 -20 37 -42 37 -50 0 -7 7 -13 15 -13 8 0 18 -12 21 -27 4 -16 35 -55 70 -89 60 -58 94 -115 94 -155 0 -10 6 -22 13 -26 19 -13 47 -72 47 -102 0 -36 -17 -51 -56 -51 -18 0 -34 -4 -36 -10 -1 -5 -19 -11 -38 -13 -33 -2 -35 -4 -38 -46 l-4 -43 32 7 c18 4 39 8 47 9 8 1 18 7 21 12 4 6 28 21 55 33 37 18 51 20 62 11 10 -8 24 -9 52 -1 58 16 72 14 105 -19 16 -16 33 -30 37 -30 4 0 16 -9 26 -20 10 -11 23 -20 30 -20 6 0 46 -33 88 -74 60 -58 79 -84 88 -118 10 -37 18 -46 43 -54 24 -7 32 -16 34 -37 3 -26 6 -28 47 -26 47 3 75 -13 75 -41 0 -32 12 -50 32 -50 25 0 49 -55 37 -87 -5 -13 -6 -29 -3 -37 5 -12 10 -12 35 1 16 8 34 23 39 33 6 11 27 27 47 36 19 10 38 25 40 35 3 9 20 25 39 35 19 10 34 23 34 27 0 5 12 7 26 4 25 -4 26 -3 20 32 -3 20 -9 130 -13 246 -3 116 -9 212 -13 215 -7 5 -32 444 -52 915 -5 138 -14 252 -19 253 -5 2 -9 17 -9 33 0 19 -5 29 -15 29 -20 0 -95 47 -95 60 0 6 -6 10 -14 10 -8 0 -23 11 -34 25 -24 30 -46 32 -72 7 -17 -16 -35 -18 -135 -16 -84 2 -121 7 -137 19 -13 8 -38 15 -56 15 l-33 0 21 30 c19 27 21 39 15 89 -5 41 -14 66 -31 84 -13 14 -28 43 -33 64 -5 21 -16 56 -24 78 l-15 40 -146 0 c-159 0 -160 1 -173 57 -3 16 -35 56 -75 95 -38 38 -73 78 -78 91 -8 18 -17 22 -49 22 -38 0 -180 26 -189 34 -2 3 -6 24 -9 48 -5 36 -15 52 -62 98 -32 30 -70 64 -86 75 -27 19 -41 33 -80 78 -18 20 -48 22 -63 5z"></path>
    </g>
  </g>
  <g fill="rgb(128,127,252)">
    <g>
      <path d="M3200 6793 c0 -5 -8 -18 -17 -29 -10 -10 -31 -45 -47 -76 -15 -32 -31 -58 -35 -58 -3 0 -19 -28 -36 -63 -16 -34 -35 -65 -41 -69 -6 -4 -19 -28 -28 -53 -10 -25 -21 -45 -25 -45 -4 0 -21 -27 -37 -60 -16 -33 -32 -60 -35 -60 -4 0 -20 -26 -35 -57 -16 -32 -34 -63 -40 -70 -7 -7 -22 -34 -35 -60 -12 -26 -26 -50 -30 -53 -4 -3 -20 -34 -35 -70 -16 -36 -35 -72 -43 -80 -7 -8 -20 -29 -27 -46 -7 -18 -20 -38 -27 -46 -8 -8 -17 -23 -21 -35 -5 -16 -1 -22 19 -27 13 -3 32 -20 40 -36 9 -17 19 -30 23 -30 11 0 59 -40 122 -100 48 -46 58 -62 63 -98 3 -24 7 -45 9 -48 9 -8 151 -34 189 -34 32 0 41 -4 49 -22 5 -13 40 -54 79 -92 39 -38 71 -75 71 -82 0 -24 23 -64 37 -64 7 0 13 -4 13 -8 0 -5 26 -5 58 -1 31 4 92 6 135 6 l79 -2 15 -40 c8 -22 19 -57 24 -78 5 -21 20 -50 33 -64 35 -38 43 -115 16 -153 -12 -17 -26 -30 -31 -30 -5 0 -9 -4 -9 -10 0 -5 19 -10 43 -10 23 0 53 -7 65 -16 17 -11 54 -16 146 -19 111 -3 126 -1 145 16 26 24 29 24 53 -6 11 -14 26 -25 34 -25 8 0 14 -4 14 -10 0 -12 67 -55 98 -63 l24 -6 -7 142 c-4 78 -11 190 -15 249 -11 127 -4 157 47 205 l38 35 79 -6 c44 -3 82 -10 85 -15 3 -4 69 -21 146 -36 77 -15 142 -31 145 -35 3 -4 37 -13 75 -19 136 -22 240 -44 245 -51 5 -7 112 -30 140 -30 9 0 22 11 28 25 8 18 25 29 57 37 37 10 49 19 62 46 12 24 13 36 5 44 -15 15 -63 -9 -70 -35 -5 -18 -15 -21 -90 -32 -43 -5 -112 16 -112 35 0 5 -8 11 -17 14 -10 3 -38 24 -63 46 -42 38 -49 40 -100 38 -58 -2 -130 18 -130 37 0 6 -11 22 -25 35 -14 13 -25 29 -25 37 0 7 -4 13 -9 13 -5 0 -18 20 -29 44 -18 36 -27 45 -57 50 -20 4 -39 14 -42 22 -3 7 -10 14 -16 14 -17 0 -87 51 -87 64 0 6 -16 21 -35 34 -22 14 -35 30 -35 43 0 18 -4 21 -28 16 -24 -5 -38 5 -116 84 l-89 89 12 40 c7 25 9 63 5 99 -6 54 -5 59 20 78 31 25 31 27 9 53 -23 27 -43 25 -43 -4 0 -37 -25 -52 -55 -32 -13 9 -31 16 -39 16 -8 0 -21 6 -28 13 -28 27 -73 39 -101 26 -15 -7 -27 -15 -27 -18 0 -4 -17 -15 -37 -26 -21 -11 -46 -27 -56 -37 -10 -10 -24 -18 -31 -18 -16 0 -86 64 -86 79 0 5 -8 16 -18 23 -11 7 -29 35 -40 61 -19 44 -20 51 -7 71 23 35 1 130 -36 156 -21 16 -29 31 -34 70 l-7 50 -45 0 c-30 0 -52 -6 -67 -19 -11 -11 -41 -38 -66 -60 -25 -23 -50 -41 -55 -41 -6 0 -16 26 -24 58 -19 84 -35 132 -43 132 -5 0 -8 11 -8 24 0 13 -11 52 -24 87 -22 58 -27 64 -55 67 -17 2 -31 -1 -31 -5z"></path>
      <path d="M8026 2967 c-38 -41 -39 -45 -40 -115 -1 -40 4 -76 9 -80 6 -4 15 -29 21 -57 18 -83 48 -190 56 -195 4 -3 20 -62 35 -130 15 -69 30 -127 33 -130 3 -3 19 -52 35 -110 15 -58 31 -107 35 -110 3 -3 12 -30 19 -60 24 -102 31 -119 48 -113 16 6 365 -47 373 -58 3 -3 28 -9 55 -12 86 -11 290 -51 295 -58 3 -4 66 -14 140 -23 223 -27 305 -39 310 -45 5 -6 156 -35 255 -48 22 -3 42 -9 45 -12 3 -4 75 -17 160 -30 85 -12 163 -25 173 -27 14 -4 17 1 17 30 0 42 8 66 24 66 15 0 36 47 36 82 0 26 -23 41 -32 20 -1 -4 -19 -15 -38 -24 l-35 -17 -37 38 c-26 28 -51 42 -87 51 -28 7 -51 16 -51 21 0 19 -65 9 -78 -11 -16 -26 -42 -26 -42 1 0 12 -18 39 -39 60 -27 25 -42 51 -47 76 -9 49 -25 63 -71 63 -47 0 -60 8 -68 43 -9 36 -34 35 -75 -3 -18 -16 -37 -30 -44 -30 -6 0 -24 -9 -41 -20 -16 -11 -38 -20 -47 -20 -27 0 -48 29 -48 66 0 28 -8 42 -39 70 -30 27 -40 45 -45 79 -4 24 -14 46 -22 49 -10 4 -13 13 -8 33 4 16 11 29 16 31 11 5 10 32 -1 32 -14 0 -29 54 -24 83 4 22 2 27 -16 27 -11 0 -21 -4 -21 -10 0 -12 -57 -14 -62 -2 -1 4 -24 17 -50 30 -27 13 -48 28 -48 33 0 5 -11 9 -25 9 -14 0 -25 -5 -25 -10 0 -6 -34 -44 -75 -86 -41 -42 -75 -81 -75 -88 0 -26 -74 -5 -110 32 -21 22 -30 37 -22 40 7 2 12 20 12 39 0 28 9 44 44 79 38 37 45 51 51 98 8 61 3 76 -25 76 -10 0 -32 14 -48 31 -23 25 -39 32 -78 36 -73 6 -94 12 -94 25 0 6 -10 22 -22 36 -18 19 -23 35 -23 80 l0 57 -55 9 c-30 4 -57 11 -60 15 -8 12 -134 31 -201 31 -62 0 -65 -1 -103 -43z"></path>
    </g>
  </g>
  <g fill="rgb(140,112,252)">
    <g>
      <path d="M3724 7722 c-6 -4 -23 -33 -38 -64 -15 -32 -31 -58 -35 -58 -3 0 -20 -28 -36 -62 -16 -35 -32 -65 -36 -68 -4 -3 -20 -30 -35 -60 -15 -30 -30 -57 -34 -60 -4 -3 -19 -31 -34 -62 -14 -32 -30 -58 -34 -58 -4 0 -20 -29 -37 -65 -16 -36 -33 -65 -36 -65 -3 0 -16 -24 -30 -52 -13 -29 -29 -57 -36 -63 -7 -5 -19 -26 -27 -47 -9 -20 -21 -42 -28 -50 -12 -12 -48 -82 -48 -93 0 -2 12 -5 26 -7 22 -3 30 -13 50 -67 13 -35 24 -74 24 -87 0 -13 3 -24 8 -24 8 0 24 -48 43 -132 17 -72 35 -75 99 -17 25 22 55 49 66 60 13 11 36 19 57 19 35 0 35 -1 42 -50 5 -39 13 -54 35 -70 36 -26 54 -106 32 -143 -14 -23 -13 -29 8 -78 12 -30 31 -60 41 -67 11 -7 19 -18 19 -23 0 -19 73 -79 96 -79 12 0 30 8 39 17 10 9 34 25 54 36 20 11 38 23 41 27 3 4 14 11 24 17 21 11 58 1 84 -24 7 -7 19 -13 27 -13 7 0 27 -8 44 -17 38 -22 64 -10 69 31 3 27 4 27 21 10 16 -17 16 -19 -5 -39 -26 -23 -31 -44 -20 -101 5 -29 3 -52 -8 -79 -9 -21 -16 -39 -16 -42 0 -2 42 -47 94 -100 83 -84 97 -95 120 -89 22 5 26 3 26 -14 0 -12 14 -29 35 -42 19 -13 35 -28 35 -34 0 -13 70 -64 87 -64 6 0 13 -7 16 -14 3 -8 22 -18 42 -22 30 -5 39 -14 57 -50 11 -24 24 -44 29 -44 5 0 9 -6 9 -13 0 -8 11 -24 25 -37 14 -13 25 -28 25 -34 0 -15 108 -57 116 -45 3 5 20 9 37 9 23 0 45 -11 77 -40 25 -22 48 -40 52 -40 4 0 13 -7 21 -14 8 -8 31 -24 51 -35 28 -16 41 -18 62 -11 14 6 38 10 54 10 38 0 60 9 60 25 0 14 45 47 53 39 3 -3 -1 -17 -9 -32 -9 -20 -26 -31 -58 -40 -34 -9 -49 -19 -61 -42 -18 -35 -20 -33 68 -50 31 -6 57 -15 57 -20 0 -19 182 -36 229 -20 35 11 81 61 81 88 0 7 5 12 10 12 6 0 10 25 10 55 0 30 -4 55 -9 55 -5 0 -11 17 -14 38 -10 79 -50 277 -57 282 -4 3 -18 70 -30 150 -13 80 -26 147 -30 150 -4 3 -10 25 -13 50 -14 98 -52 285 -58 290 -5 4 -59 294 -59 319 0 3 -57 7 -127 7 -142 0 -156 5 -215 66 -43 45 -47 64 -17 73 23 8 40 43 59 123 6 28 16 52 21 52 18 0 9 29 -11 35 -11 3 -28 17 -38 30 -23 29 -81 65 -104 65 -10 0 -18 5 -18 10 0 6 -20 10 -45 10 -25 0 -45 -4 -45 -10 0 -5 -21 -10 -46 -10 -37 0 -50 5 -66 25 -11 14 -28 25 -38 25 -10 0 -26 10 -35 23 -13 19 -27 23 -101 27 l-86 5 -3 55 c-3 66 -18 108 -42 117 -10 4 -20 10 -23 13 -7 10 -100 40 -122 40 -9 0 -25 12 -35 26 -19 29 -68 54 -108 54 -14 0 -25 5 -25 10 0 6 -20 10 -45 10 -38 0 -45 3 -45 20 0 11 -4 20 -10 20 -5 0 -10 16 -10 35 0 41 0 41 -97 142 -56 58 -73 82 -73 104 0 22 -5 29 -19 29 -11 0 -21 -4 -23 -10 -1 -5 -22 -12 -45 -16 -37 -6 -42 -4 -55 19 -7 15 -18 23 -24 19z m1256 -1186 c0 -7 -9 -16 -20 -19 -15 -4 -20 -14 -20 -36 0 -21 -5 -31 -15 -31 -8 0 -15 5 -15 10 0 6 5 10 11 10 7 0 9 10 6 25 -3 18 2 30 17 40 26 19 36 19 36 1z"></path>
      <path d="M9220 3600 c0 -5 -16 -10 -35 -10 -24 0 -35 -5 -35 -15 0 -8 4 -15 8 -15 5 0 22 -28 38 -62 16 -35 32 -65 36 -68 3 -3 19 -34 34 -70 16 -36 31 -67 35 -70 4 -3 17 -28 29 -55 12 -27 25 -52 29 -55 4 -3 19 -34 35 -70 15 -36 31 -67 34 -70 4 -3 15 -22 25 -43 50 -110 -18 -218 -130 -205 -86 10 -318 52 -323 59 -3 3 -66 16 -140 28 -74 12 -137 25 -140 30 -4 7 -122 25 -246 38 l-41 5 1 -60 c1 -48 6 -65 24 -84 12 -14 22 -29 22 -35 0 -15 26 -23 90 -27 43 -2 57 -8 81 -34 17 -18 39 -32 49 -32 27 0 32 -14 24 -66 -5 -36 -16 -55 -50 -89 -34 -33 -44 -50 -44 -75 0 -17 -7 -38 -15 -47 -14 -13 -12 -19 22 -52 29 -29 49 -39 82 -44 24 -3 48 -11 53 -19 7 -9 8 -4 4 14 -5 23 4 37 69 102 41 42 75 80 75 86 0 5 7 10 15 10 8 0 15 -4 15 -9 0 -5 21 -20 48 -33 26 -13 49 -26 52 -29 13 -16 59 -18 74 -4 20 21 29 19 21 -5 -8 -25 12 -90 28 -90 9 0 9 -2 0 -8 -6 -4 -14 -24 -18 -44 -6 -30 -4 -39 8 -44 10 -3 19 -24 23 -49 5 -34 15 -52 45 -79 31 -28 39 -42 39 -70 0 -19 7 -42 16 -50 20 -20 63 -20 92 0 12 8 30 17 40 19 10 1 33 17 51 34 41 38 47 38 56 4 8 -35 21 -43 68 -43 46 0 62 -14 71 -63 5 -25 20 -51 47 -76 26 -26 39 -47 39 -66 0 -23 3 -25 23 -20 12 4 29 15 39 26 16 19 58 26 58 10 0 -5 23 -15 51 -21 37 -9 61 -23 88 -51 20 -22 40 -39 44 -39 15 0 82 33 89 44 13 18 9 -28 -4 -57 -7 -15 -18 -27 -24 -27 -16 0 -24 -24 -24 -71 0 -37 2 -39 30 -39 17 0 30 -4 30 -9 0 -4 28 -12 63 -15 34 -4 101 -16 149 -27 48 -10 99 -19 112 -19 13 0 26 -4 28 -8 2 -4 90 -21 196 -37 105 -16 192 -32 192 -36 0 -3 26 -9 58 -13 124 -14 317 -50 324 -59 9 -14 266 -16 276 -2 4 6 28 20 55 33 28 14 53 35 62 53 9 16 20 29 25 29 5 0 19 32 31 71 16 52 20 83 15 120 -6 46 -32 117 -47 129 -4 3 -19 28 -34 55 -16 28 -31 52 -34 55 -3 3 -17 29 -30 58 -14 28 -28 52 -32 52 -4 0 -12 12 -17 28 -6 15 -17 36 -24 46 -14 18 -17 17 -59 -27 -24 -26 -49 -47 -56 -47 -6 0 -16 -6 -20 -13 -10 -17 -69 -38 -87 -31 -7 3 -23 18 -35 34 -12 17 -28 30 -36 30 -7 0 -24 15 -36 33 -13 17 -27 33 -31 35 -10 5 -10 42 0 42 14 0 51 85 57 133 4 26 10 47 16 47 5 0 9 6 9 14 0 16 -13 21 -72 31 -20 4 -45 15 -57 26 -21 20 -91 27 -91 9 0 -18 -42 -32 -76 -25 -41 7 -76 40 -100 95 -10 22 -21 40 -26 40 -4 0 -8 9 -8 20 0 11 5 20 10 20 6 0 10 7 10 15 0 8 -4 15 -9 15 -5 0 -16 7 -25 15 -8 8 -42 18 -75 21 -40 5 -66 13 -77 25 -10 11 -21 19 -25 19 -4 0 -21 13 -37 30 -17 16 -37 30 -46 30 -8 0 -19 6 -23 13 -11 17 -86 67 -101 67 -7 0 -12 7 -12 15 0 8 -12 17 -27 21 -35 7 -93 36 -93 46 0 3 -9 10 -20 13 -17 6 -20 15 -20 75 0 64 -21 139 -42 148 -5 2 -8 10 -8 17 0 48 -62 125 -101 125 -16 0 -89 -35 -89 -42 0 -5 -5 -8 -10 -8 -6 0 -23 -9 -39 -21 l-28 -20 -44 22 c-24 13 -45 27 -47 31 -2 4 -17 8 -32 8 -16 0 -32 4 -35 10 -3 5 -21 17 -40 26 -19 9 -35 20 -35 25 0 5 -15 9 -33 9 -60 0 -112 82 -109 172 2 48 -1 60 -18 70 -11 7 -20 21 -20 32 0 10 -11 29 -26 42 -23 22 -33 24 -145 24 -73 0 -119 -4 -119 -10z"></path>
    </g>
  </g>
  <g fill="rgb(162,84,252)">
    <g>
      <path d="M5285 10457 c-12 -12 -29 -42 -40 -67 -11 -25 -26 -52 -34 -60 -7 -8 -20 -29 -27 -46 -7 -18 -19 -38 -26 -46 -7 -7 -26 -40 -42 -73 -16 -33 -32 -62 -36 -65 -3 -3 -20 -32 -35 -65 -16 -33 -32 -62 -35 -65 -4 -3 -20 -30 -36 -60 -16 -30 -34 -61 -41 -68 -6 -6 -22 -33 -35 -60 -13 -26 -28 -50 -35 -55 -6 -4 -19 -27 -29 -52 -9 -25 -20 -45 -23 -45 -4 0 -19 -29 -35 -65 -15 -36 -31 -65 -35 -65 -4 0 -21 -26 -37 -57 -15 -32 -33 -63 -39 -69 -5 -6 -21 -35 -35 -65 -14 -30 -31 -61 -39 -69 -8 -8 -20 -29 -27 -46 -7 -18 -19 -38 -26 -46 -7 -7 -24 -35 -38 -61 -13 -26 -27 -47 -31 -47 -3 0 -19 -30 -34 -67 -16 -38 -33 -70 -38 -72 -5 -2 -17 -22 -27 -45 -10 -23 -24 -49 -31 -57 -15 -16 -35 -48 -58 -94 -8 -16 -17 -32 -21 -35 -8 -6 -46 -87 -55 -117 -3 -13 -10 -23 -15 -23 -5 0 -22 -26 -37 -57 -15 -32 -33 -64 -40 -71 -8 -8 -20 -30 -29 -50 -8 -20 -18 -39 -22 -42 -4 -3 -20 -31 -36 -62 -16 -32 -32 -58 -36 -58 -4 0 -19 -27 -34 -60 -15 -33 -30 -60 -34 -60 -4 0 -20 -28 -37 -63 -16 -34 -36 -68 -43 -75 -7 -8 -19 -30 -28 -50 -8 -21 -20 -41 -27 -47 -7 -5 -23 -34 -36 -62 -21 -45 -23 -57 -12 -79 11 -25 15 -26 64 -21 28 4 53 11 55 17 7 21 22 9 22 -19 0 -22 17 -46 72 -104 98 -101 98 -101 98 -142 0 -19 5 -35 10 -35 6 0 10 -15 11 -32 0 -18 3 -27 6 -20 6 14 83 17 83 2 0 -5 11 -10 25 -10 40 0 89 -25 108 -54 10 -14 26 -26 35 -26 21 0 114 -30 122 -39 3 -3 14 -11 25 -17 25 -14 48 -89 40 -131 -3 -19 -1 -34 6 -39 6 -3 44 -6 85 -5 67 2 75 0 96 -24 12 -14 29 -25 39 -25 10 0 26 -11 37 -25 17 -21 28 -25 76 -25 31 0 56 5 56 10 0 6 16 10 35 10 19 0 35 -4 35 -10 0 -5 8 -10 18 -10 21 0 84 -37 95 -57 5 -8 23 -23 40 -34 18 -10 27 -19 21 -19 -7 0 -15 -12 -18 -27 -26 -110 -36 -131 -72 -152 -19 -12 -41 -21 -49 -21 -8 0 -19 -8 -24 -19 -6 -10 -27 -28 -47 -40 -30 -18 -35 -25 -30 -46 4 -14 2 -25 -4 -25 -5 0 -10 -12 -10 -26 0 -20 4 -25 16 -20 9 3 20 6 25 6 5 0 9 14 9 31 0 22 5 32 20 36 11 3 20 13 20 22 0 9 8 24 19 33 10 8 21 22 25 29 5 11 7 11 12 1 10 -21 78 -88 104 -102 16 -8 71 -14 157 -15 124 -2 133 -1 133 16 0 11 -4 19 -10 19 -5 0 -10 9 -10 20 0 11 -12 79 -26 152 -22 109 -24 138 -15 167 25 80 81 111 167 92 30 -7 54 -16 54 -20 0 -4 44 -18 98 -31 53 -13 99 -26 102 -29 3 -4 57 -20 120 -35 63 -16 117 -32 120 -37 9 -14 192 -59 238 -59 23 0 61 9 82 20 54 28 73 67 68 144 -5 68 -39 268 -48 276 -6 5 -20 73 -41 200 -7 41 -16 77 -19 80 -7 5 -42 184 -56 285 -4 28 -10 52 -14 55 -4 3 -12 34 -18 70 -30 186 -47 276 -52 280 -7 6 -60 286 -60 317 0 12 -4 23 -8 25 -5 2 -21 75 -37 163 -16 88 -32 162 -37 165 -8 6 -48 225 -48 265 0 13 -3 25 -8 27 -7 3 -43 177 -58 286 -4 23 -10 42 -15 42 -5 0 -9 18 -9 40 0 22 5 40 10 40 6 0 10 7 10 15 0 8 14 30 30 47 27 28 38 32 84 32 50 1 56 -2 92 -40 43 -44 69 -84 85 -126 6 -16 14 -28 18 -28 4 0 20 -31 35 -70 15 -38 31 -70 35 -70 3 0 15 -23 26 -51 11 -28 25 -53 31 -56 6 -2 24 -34 40 -71 15 -37 32 -68 36 -70 4 -2 8 -8 8 -14 0 -14 51 -122 60 -128 4 -3 20 -34 35 -70 15 -36 31 -67 35 -70 4 -3 20 -34 35 -70 15 -36 31 -67 35 -70 10 -7 50 -99 50 -116 0 -7 6 -19 13 -26 7 -7 23 -35 37 -63 14 -27 28 -52 32 -55 3 -3 19 -34 34 -70 16 -36 32 -68 36 -71 5 -3 20 -36 33 -74 14 -38 29 -72 34 -75 5 -3 21 -32 36 -65 16 -33 32 -62 36 -65 4 -3 19 -34 34 -70 15 -36 31 -67 35 -70 4 -3 18 -30 31 -60 12 -30 26 -57 30 -60 4 -3 20 -34 35 -70 16 -36 31 -67 35 -70 4 -3 20 -34 35 -70 16 -36 31 -67 35 -70 10 -7 49 -98 49 -115 0 -8 6 -20 14 -27 7 -8 26 -41 41 -74 16 -32 32 -61 36 -64 4 -3 19 -34 34 -70 15 -36 31 -67 35 -70 4 -3 18 -30 31 -60 12 -30 26 -57 30 -60 4 -3 20 -34 35 -70 16 -36 31 -67 35 -70 9 -7 59 -115 59 -128 0 -7 4 -12 9 -12 5 0 22 -31 37 -70 15 -38 30 -70 34 -70 4 0 20 -31 35 -70 15 -38 31 -70 35 -70 4 0 18 -27 31 -60 13 -33 26 -60 30 -60 3 0 19 -30 34 -67 16 -38 32 -70 36 -73 4 -3 20 -34 35 -70 16 -36 31 -67 35 -70 3 -3 19 -32 35 -65 16 -33 32 -62 36 -65 3 -3 19 -34 34 -70 16 -36 31 -67 35 -70 10 -7 49 -98 49 -115 0 -8 6 -20 14 -27 7 -8 23 -35 34 -61 11 -26 25 -47 29 -47 4 0 21 -34 38 -75 16 -41 32 -75 36 -75 3 0 19 -30 34 -67 16 -38 31 -70 35 -73 3 -3 19 -36 35 -75 16 -38 32 -72 36 -75 4 -3 19 -34 34 -70 15 -36 31 -67 35 -70 4 -3 18 -30 31 -60 12 -30 26 -57 30 -60 4 -3 20 -34 35 -70 16 -36 33 -70 39 -76 5 -6 21 -35 35 -65 14 -30 28 -56 32 -59 3 -3 19 -34 34 -70 16 -36 31 -67 35 -70 4 -3 19 -36 34 -75 16 -38 31 -72 35 -75 4 -3 20 -34 35 -70 15 -36 31 -67 35 -70 4 -3 14 -21 22 -40 9 -20 22 -42 30 -50 7 -8 27 -45 42 -82 16 -38 33 -68 38 -68 4 0 8 -6 8 -14 0 -8 11 -41 25 -73 l26 -58 39 3 c22 2 40 8 40 13 0 5 49 9 109 9 102 0 112 -2 135 -24 15 -13 26 -32 26 -42 0 -11 10 -25 21 -32 19 -12 21 -20 15 -59 -11 -82 50 -183 111 -183 18 0 33 -4 33 -9 0 -5 16 -16 35 -25 19 -9 37 -21 40 -26 3 -6 19 -10 36 -10 16 0 29 -3 29 -8 0 -4 23 -18 50 -31 41 -20 54 -22 73 -13 28 15 60 35 67 43 3 3 21 13 41 22 33 15 40 15 64 3 26 -13 65 -81 65 -111 0 -7 3 -15 8 -17 21 -9 42 -84 42 -148 0 -60 3 -69 20 -75 11 -3 20 -10 20 -13 0 -10 58 -39 93 -46 15 -4 27 -13 27 -21 0 -8 5 -15 12 -15 15 0 90 -50 101 -67 4 -7 15 -13 23 -13 9 0 29 -13 46 -30 16 -16 33 -30 37 -30 4 0 15 -8 25 -19 11 -12 37 -20 78 -25 34 -3 64 -10 67 -14 3 -5 15 -14 26 -20 11 -6 14 -12 8 -12 -14 0 -18 -60 -5 -60 5 0 16 -17 25 -39 10 -21 25 -48 35 -59 38 -44 119 -55 152 -22 25 25 55 25 82 1 11 -11 39 -23 62 -26 41 -7 82 -24 59 -25 -6 0 -14 -21 -18 -47 -6 -48 -43 -133 -57 -133 -10 0 -10 -57 0 -62 4 -1 18 -18 31 -35 12 -18 28 -33 36 -33 7 0 23 -12 35 -28 33 -42 58 -52 89 -36 14 8 31 14 37 14 7 0 14 7 18 15 3 8 11 15 18 15 18 0 98 86 98 104 0 8 -6 19 -14 23 -7 4 -26 35 -41 68 -16 33 -31 62 -35 65 -4 3 -19 30 -34 60 -15 30 -31 57 -34 60 -4 3 -20 33 -36 67 -16 35 -32 63 -35 63 -3 0 -14 21 -25 46 -10 24 -24 50 -30 57 -6 7 -25 39 -41 72 -17 33 -35 65 -41 72 -7 7 -22 33 -34 58 -12 25 -26 45 -31 45 -5 0 -9 5 -9 11 0 13 -48 111 -58 119 -4 3 -18 29 -32 59 -14 30 -30 59 -35 65 -6 6 -23 38 -40 71 -16 33 -32 62 -35 65 -4 3 -17 28 -30 55 -13 28 -29 55 -34 61 -6 6 -22 35 -36 65 -14 30 -28 56 -32 59 -3 3 -19 30 -34 60 -15 30 -31 57 -35 60 -5 3 -20 31 -33 63 -14 31 -29 57 -34 57 -4 0 -16 23 -27 51 -11 28 -27 58 -36 67 -8 9 -26 40 -40 67 -13 28 -30 56 -38 64 -7 8 -21 34 -31 57 -10 23 -22 43 -27 45 -4 2 -19 28 -33 58 -14 30 -30 59 -35 65 -6 6 -23 38 -40 71 -16 33 -32 62 -36 65 -4 3 -19 34 -34 69 -14 35 -32 70 -40 77 -7 7 -23 38 -36 69 -12 30 -26 55 -30 55 -4 0 -17 19 -29 43 -12 23 -25 44 -29 47 -4 3 -20 32 -36 65 -15 33 -31 62 -35 65 -3 3 -20 32 -35 65 -16 33 -32 62 -35 65 -10 10 -40 72 -40 84 0 7 -9 22 -21 34 -11 13 -32 47 -45 77 -14 30 -29 55 -34 55 -5 0 -19 23 -31 50 -12 28 -26 50 -30 50 -4 0 -20 26 -35 58 -15 31 -30 59 -34 62 -4 3 -20 32 -35 65 -16 33 -32 62 -37 63 -4 2 -20 29 -35 60 -14 32 -30 59 -34 62 -4 3 -19 29 -34 58 -14 28 -29 52 -33 52 -4 0 -18 28 -32 61 -13 34 -29 67 -35 73 -6 6 -22 34 -35 61 -13 28 -31 58 -41 68 -9 10 -22 36 -29 58 -8 22 -19 43 -25 47 -7 4 -25 34 -40 67 -16 33 -32 62 -36 65 -4 3 -20 30 -35 60 -15 30 -30 57 -34 60 -4 3 -20 30 -36 60 -15 30 -30 57 -33 60 -4 3 -17 28 -31 55 -14 28 -28 52 -31 55 -4 3 -19 32 -34 65 -16 33 -32 62 -36 65 -4 3 -20 30 -35 60 -15 30 -30 57 -33 60 -3 3 -17 28 -30 55 -13 28 -29 55 -35 60 -6 6 -24 37 -40 70 -16 33 -32 62 -36 65 -4 3 -19 32 -35 65 -15 33 -31 62 -35 65 -3 3 -17 28 -30 55 -13 28 -27 52 -30 55 -4 3 -19 30 -34 60 -15 30 -31 57 -35 60 -4 3 -18 27 -30 53 -13 26 -29 53 -36 60 -7 7 -25 40 -40 73 -16 32 -31 61 -35 64 -4 3 -20 32 -35 65 -16 33 -31 62 -35 65 -3 3 -16 25 -29 50 -13 25 -26 47 -30 50 -4 3 -18 27 -30 53 -13 26 -29 53 -35 60 -7 7 -25 39 -40 72 -16 33 -32 62 -36 65 -4 3 -19 32 -35 64 -15 33 -33 66 -40 73 -7 7 -23 34 -36 60 -13 26 -28 53 -34 59 -6 6 -22 38 -35 71 -21 53 -28 61 -67 77 -25 10 -50 27 -56 37 -7 11 -17 19 -23 19 -6 0 -17 7 -24 15 -7 8 -30 20 -51 26 -35 11 -42 10 -81 -16 -24 -15 -47 -34 -51 -42 -4 -7 -22 -13 -40 -13 -33 0 -33 0 -75 88 -9 17 -20 32 -24 32 -4 0 -8 18 -8 41 0 22 -6 61 -14 87 -8 26 -17 59 -20 73 -3 14 -19 41 -36 60 -39 42 -50 70 -50 120 0 21 -4 39 -9 39 -4 0 -20 27 -35 60 -15 33 -31 60 -35 60 -16 0 -41 79 -35 110 l6 30 -63 -6 c-35 -4 -68 -12 -74 -18 -22 -26 -47 -34 -81 -23 -19 6 -34 14 -34 18 0 4 -19 10 -42 14 -43 7 -104 38 -110 55 -5 16 -196 34 -224 21 -14 -6 -34 -11 -44 -11 -11 0 -20 -4 -20 -10 0 -5 -8 -10 -17 -10 -17 0 -63 59 -63 79 0 6 -6 14 -14 18 -7 4 -19 25 -26 46 -6 21 -20 43 -31 50 -19 12 -27 62 -10 69 5 2 12 29 16 60 7 54 6 58 -16 67 -13 5 -32 19 -41 30 -25 30 -140 31 -165 1 -10 -11 -30 -20 -45 -20 -15 0 -30 -5 -33 -10 -6 -9 -50 -7 -112 6 -13 2 -23 10 -23 17 0 23 -45 57 -74 57 -21 0 -29 7 -37 30 -6 17 -17 30 -24 30 -8 0 -17 9 -20 20 -3 11 -10 20 -15 20 -6 0 -7 19 -4 43 7 47 -10 122 -32 145 -17 16 -10 46 16 72 11 11 24 37 31 58 10 35 9 43 -7 66 -17 22 -26 25 -81 26 -36 0 -63 -4 -63 -10 0 -6 -27 -10 -60 -10 -33 0 -60 4 -60 10 0 6 -12 10 -26 10 -14 0 -37 9 -51 20 -34 27 -83 26 -108 -3z"></path>
    </g>
  </g>
  <g fill="rgb(187,52,252)">
    <g>
      <path d="M5980 11510 c0 -5 -7 -10 -15 -10 -48 0 -136 -78 -175 -155 -14 -27 -32 -57 -40 -66 -8 -10 -24 -40 -35 -68 -11 -28 -23 -51 -26 -51 -4 0 -20 -26 -35 -57 -15 -32 -30 -60 -34 -63 -4 -3 -18 -25 -30 -50 -12 -25 -26 -47 -30 -50 -3 -3 -19 -31 -35 -62 -16 -32 -32 -58 -36 -58 -4 0 -17 -25 -29 -55 -12 -31 -28 -59 -34 -63 -6 -4 -21 -28 -34 -54 -13 -27 -29 -54 -35 -61 -17 -18 -57 -94 -57 -106 0 -6 13 -11 29 -11 15 0 40 -9 54 -20 14 -11 37 -20 51 -20 14 0 26 -4 26 -10 0 -6 30 -10 70 -10 40 0 70 4 70 10 0 6 24 10 53 10 44 -1 55 -5 70 -25 17 -24 17 -27 -2 -70 -11 -25 -24 -45 -29 -45 -5 0 -12 -8 -16 -17 -3 -10 -8 -23 -11 -28 -3 -6 3 -20 14 -32 27 -29 43 -96 35 -149 -4 -28 -3 -44 4 -44 6 0 14 -9 17 -20 3 -11 12 -20 20 -20 7 0 18 -13 24 -30 8 -24 16 -30 39 -30 28 0 72 -35 72 -57 0 -14 18 -19 92 -28 35 -4 58 -2 63 4 3 6 18 11 33 11 15 0 35 9 44 20 24 28 123 27 146 -2 10 -11 27 -24 40 -29 21 -8 23 -13 16 -56 -4 -27 -11 -49 -15 -51 -5 -2 -9 -20 -9 -40 0 -26 6 -41 20 -49 10 -7 24 -31 31 -53 7 -22 16 -40 20 -40 4 0 15 -15 24 -34 18 -37 51 -76 65 -76 5 0 15 7 24 15 8 8 22 15 31 15 9 0 25 5 36 11 23 12 202 -6 207 -21 6 -17 67 -48 110 -55 23 -4 42 -10 42 -14 0 -4 18 -13 40 -20 41 -12 71 -4 95 25 6 6 34 14 62 16 51 5 52 4 47 -19 -7 -25 22 -113 36 -113 5 0 21 -27 36 -60 15 -33 31 -60 35 -60 5 0 9 -18 9 -39 0 -50 11 -78 50 -120 17 -19 33 -46 36 -60 3 -14 12 -47 20 -73 8 -26 14 -65 14 -87 0 -23 4 -41 8 -41 4 0 15 -15 24 -32 44 -91 40 -88 85 -88 25 0 45 6 50 13 4 8 27 26 49 41 40 26 43 27 75 12 46 -21 72 -38 82 -54 10 -15 81 -52 102 -52 12 0 11 4 -5 20 -11 11 -20 26 -20 33 0 7 -9 22 -19 34 -10 11 -31 47 -47 79 -15 32 -30 61 -34 64 -3 3 -19 32 -35 65 -17 33 -35 65 -41 72 -7 7 -22 34 -35 60 -12 26 -26 50 -30 53 -4 3 -20 34 -35 70 -16 36 -36 74 -46 84 -10 11 -22 34 -29 53 -6 18 -14 33 -18 33 -4 0 -21 27 -37 60 -16 33 -32 60 -36 60 -4 0 -20 26 -35 58 -15 31 -31 59 -35 62 -4 3 -16 28 -28 55 -11 28 -26 55 -33 60 -7 6 -26 38 -42 73 -16 34 -32 62 -36 62 -4 0 -19 29 -34 65 -16 36 -31 65 -34 65 -3 0 -17 25 -31 55 -14 30 -28 55 -31 55 -3 0 -19 28 -35 63 -16 34 -35 68 -42 75 -7 8 -19 28 -26 46 -7 17 -19 38 -27 46 -8 8 -25 39 -39 69 -14 30 -30 59 -35 65 -6 6 -23 36 -39 66 -16 30 -32 57 -36 60 -3 3 -17 28 -30 55 -13 28 -27 52 -31 55 -4 3 -17 26 -27 51 -11 25 -26 52 -33 60 -8 8 -25 38 -39 68 -14 30 -30 59 -35 65 -6 6 -23 36 -39 66 -16 30 -32 57 -36 60 -4 3 -20 33 -35 68 -15 34 -31 62 -35 62 -3 0 -17 26 -30 58 -12 31 -28 62 -35 67 -7 6 -23 32 -35 58 -12 26 -26 47 -31 47 -5 0 -9 6 -9 13 0 34 -120 127 -164 127 -9 0 -16 5 -16 10 0 6 -30 10 -70 10 -40 0 -70 -4 -70 -10z"></path>
    </g>
  </g>
  <g fill="rgb(253,198,35)">
    <g>
      <path d="M5590 6060 c0 -5 -11 -12 -25 -16 -14 -3 -29 -14 -34 -23 -9 -17 17 -202 29 -211 4 -3 17 -70 30 -150 12 -80 26 -147 30 -150 7 -5 47 -203 57 -282 3 -21 9 -38 14 -38 5 0 9 -20 9 -45 0 -25 -4 -45 -10 -45 -5 0 -10 -5 -10 -12 0 -27 -46 -77 -81 -88 -46 -15 -196 0 -210 21 -3 5 -66 21 -140 36 -74 14 -136 30 -139 33 -5 7 -109 29 -245 51 -38 6 -72 15 -75 19 -3 4 -68 20 -145 35 -77 15 -143 32 -146 37 -3 5 -46 12 -95 15 l-89 5 -38 -35 c-52 -49 -59 -79 -48 -222 6 -66 13 -190 17 -275 4 -85 10 -157 14 -160 4 -3 12 -117 18 -255 21 -485 45 -910 52 -915 4 -3 10 -79 12 -170 3 -91 13 -319 24 -507 17 -315 20 -343 36 -343 10 0 18 -4 18 -8 0 -13 84 -34 105 -26 10 4 40 29 65 54 l47 47 11 -32 c7 -17 12 -38 12 -47 0 -9 7 -18 15 -22 11 -4 15 -21 15 -65 l0 -60 38 -10 c20 -6 60 -17 87 -26 29 -8 89 -15 143 -15 50 0 92 -4 92 -9 0 -17 56 -38 89 -33 18 2 38 13 44 23 9 15 24 19 64 19 29 0 53 -4 53 -10 0 -5 7 -10 15 -10 8 0 45 -30 82 -66 37 -37 69 -62 71 -55 2 6 20 18 39 26 32 14 39 14 59 0 12 -8 25 -24 29 -35 3 -11 13 -20 21 -20 8 0 33 -18 55 -40 23 -22 52 -43 65 -46 29 -7 124 23 144 45 32 36 65 48 125 47 33 -1 89 1 125 4 53 6 77 3 134 -16 38 -13 73 -29 77 -35 5 -8 35 -12 89 -11 53 1 103 -5 143 -18 34 -10 83 -21 109 -25 27 -3 49 -12 52 -21 4 -11 14 -13 40 -8 44 8 95 -28 116 -81 11 -28 19 -35 41 -35 14 0 32 7 39 15 7 8 18 15 24 15 7 0 23 10 36 22 18 17 35 22 73 21 27 0 52 -5 56 -10 10 -14 123 -46 161 -44 19 0 51 1 70 1 19 0 48 6 63 12 35 14 47 1 47 -54 0 -28 7 -43 34 -68 28 -26 35 -43 41 -86 7 -60 23 -69 49 -29 9 14 27 32 40 40 20 13 27 14 57 1 19 -8 49 -28 67 -45 34 -32 52 -39 52 -21 0 6 -4 10 -10 10 -5 0 -10 5 -10 11 0 6 -13 21 -29 35 -16 13 -32 35 -35 49 -4 14 -11 25 -16 25 -6 0 -10 11 -10 24 0 13 -7 29 -15 36 -28 24 -18 40 27 40 28 0 51 8 74 25 29 22 42 25 123 25 l91 0 0 35 c0 37 10 44 30 20 7 -8 19 -15 26 -15 7 0 22 -12 31 -27 24 -37 80 -93 93 -93 22 0 80 -46 81 -65 2 -35 -2 -49 -22 -63 -27 -19 -24 -34 6 -26 15 4 25 2 25 -4 0 -18 30 -41 45 -36 17 7 21 54 5 54 -5 0 -10 8 -10 17 0 29 -53 228 -62 231 -4 2 -8 11 -8 20 0 23 -43 196 -51 202 -3 3 -19 52 -34 110 -16 58 -32 107 -35 110 -3 3 -18 61 -33 130 -15 68 -31 127 -35 130 -8 5 -38 112 -56 195 -6 28 -15 53 -21 57 -5 4 -10 36 -9 70 1 59 4 66 41 106 37 39 44 42 93 42 58 0 182 -20 190 -31 5 -7 222 -44 325 -55 33 -4 62 -11 65 -15 3 -5 66 -18 140 -30 74 -12 137 -25 140 -28 6 -8 258 -52 334 -59 99 -9 156 44 156 144 0 39 -24 111 -42 124 -3 3 -19 34 -34 70 -16 36 -31 67 -35 70 -4 3 -17 28 -29 55 -12 27 -25 52 -29 55 -4 3 -19 34 -35 70 -15 36 -31 67 -34 70 -4 3 -18 29 -32 59 -14 30 -30 59 -35 65 -14 15 -65 134 -65 152 0 8 -4 14 -8 14 -5 0 -22 30 -38 68 -15 37 -35 74 -42 82 -8 8 -21 30 -30 50 -8 19 -18 37 -22 40 -4 3 -20 34 -35 70 -15 36 -31 67 -35 70 -4 3 -19 37 -35 75 -15 39 -30 72 -34 75 -4 3 -19 34 -35 70 -15 36 -31 67 -34 70 -4 3 -18 29 -32 59 -14 30 -30 59 -35 65 -6 6 -23 40 -39 76 -15 36 -31 67 -35 70 -4 3 -18 30 -30 60 -13 30 -27 57 -31 60 -4 3 -19 33 -33 66 -25 58 -85 134 -107 134 -5 0 -10 11 -10 23 0 14 -15 38 -37 59 -49 46 -93 98 -93 109 0 5 -4 9 -8 9 -10 0 -122 108 -122 117 0 3 -7 11 -16 17 -12 9 -16 34 -17 112 l-2 101 -67 66 -66 67 -46 -6 c-25 -4 -46 -11 -46 -15 0 -5 -11 -9 -24 -9 -31 0 -66 -19 -116 -61 -35 -29 -40 -39 -40 -75 0 -32 5 -45 22 -56 21 -14 23 -23 23 -124 l0 -109 -28 -3 c-21 -3 -27 1 -27 16 0 11 7 23 16 26 10 4 14 16 12 38 -2 26 -10 36 -44 52 -46 23 -57 49 -47 108 6 40 -14 148 -28 148 -5 0 -19 17 -33 38 -13 20 -41 46 -62 57 -22 11 -41 23 -44 26 -3 4 -26 17 -52 29 -25 12 -49 28 -52 36 -8 21 -59 17 -79 -6 -12 -15 -29 -20 -62 -20 -26 0 -57 -7 -71 -17 -21 -13 -43 -15 -140 -10 l-114 6 -27 -29 c-14 -17 -32 -30 -39 -30 -7 0 -21 -12 -32 -27 -17 -23 -26 -26 -68 -25 -44 2 -53 7 -97 52 -47 48 -51 50 -103 50 -30 0 -54 -4 -54 -8 0 -7 -105 -42 -124 -42 -3 0 -6 17 -8 38 -2 27 -9 40 -25 47 -13 5 -23 13 -23 17 0 5 -34 8 -75 8 -41 0 -75 -4 -75 -8 0 -4 -16 -14 -36 -21 -42 -15 -84 0 -84 30 0 10 -4 21 -10 24 -5 3 -10 15 -10 26 0 11 -8 22 -17 26 -10 3 -39 27 -65 54 -40 39 -48 54 -48 83 0 42 -4 43 -95 21 -51 -12 -62 -12 -85 0 -14 8 -33 17 -42 21 -10 3 -18 10 -18 15 0 5 -11 9 -25 9 -14 0 -25 -4 -25 -10z"></path>
    </g>
  </g>
  <g fill="rgb(254,179,13)">
    <g>
      <path d="M6195 7993 c4 -21 11 -51 15 -68 5 -16 12 -56 16 -87 3 -32 10 -58 14 -58 4 0 10 -24 14 -52 12 -92 49 -283 56 -288 3 -3 12 -39 19 -80 21 -127 35 -195 41 -200 8 -7 42 -202 48 -266 2 -35 -2 -62 -12 -83 -19 -36 -82 -71 -128 -71 -39 0 -220 47 -228 59 -3 5 -57 21 -120 37 -63 15 -117 31 -120 34 -3 4 -48 17 -100 30 -52 12 -98 26 -101 31 -3 5 -31 15 -61 21 -73 15 -125 0 -156 -47 -35 -50 -36 -90 -8 -233 14 -73 26 -141 26 -151 0 -11 4 -21 8 -23 4 -1 20 -79 36 -173 15 -93 31 -172 35 -175 4 -3 14 -40 21 -84 13 -74 14 -77 29 -58 9 11 26 23 39 27 12 3 22 11 22 16 0 5 7 9 15 9 8 0 15 -4 15 -9 0 -5 8 -12 18 -15 9 -4 30 -13 45 -22 28 -15 51 -14 154 12 21 6 23 3 23 -31 0 -31 8 -45 48 -84 26 -27 55 -51 65 -54 9 -4 17 -15 17 -26 0 -11 5 -23 10 -26 6 -3 10 -14 10 -23 0 -9 11 -25 24 -34 23 -17 27 -17 70 -1 25 10 46 21 46 25 0 4 29 8 65 8 36 0 65 -3 65 -8 0 -4 10 -12 23 -17 25 -11 34 -53 17 -85 -8 -16 -8 -20 4 -20 8 0 17 4 20 9 3 5 35 17 71 26 36 10 65 22 65 26 0 5 20 9 44 9 40 0 49 -5 93 -50 47 -48 52 -50 107 -53 53 -2 59 0 78 26 11 15 25 27 32 27 7 0 24 13 38 29 l26 28 116 -5 c96 -4 119 -2 140 12 14 9 45 16 71 16 33 0 50 5 62 20 20 23 51 26 59 6 3 -8 27 -24 52 -36 26 -12 49 -25 52 -29 3 -3 22 -15 44 -26 21 -11 49 -37 62 -57 14 -21 28 -38 33 -38 14 0 34 -106 26 -139 -12 -57 3 -94 49 -117 44 -22 61 -59 32 -70 -9 -4 -16 -18 -16 -34 0 -19 -6 -30 -17 -34 -10 -2 5 -2 32 1 28 3 53 7 56 9 3 2 6 56 5 120 -1 109 -3 118 -24 132 -37 24 -30 70 18 111 50 42 85 61 116 61 13 0 24 4 24 9 0 5 17 11 38 13 34 4 41 0 100 -59 l64 -63 5 -79 c6 -78 5 -80 -23 -107 -28 -26 -28 -27 -5 -21 22 5 61 -10 61 -25 0 -10 111 -118 122 -118 4 0 8 -4 8 -9 0 -11 44 -63 93 -109 22 -21 37 -45 37 -59 0 -12 6 -23 13 -23 6 0 23 -14 36 -30 13 -17 31 -30 40 -30 10 0 12 3 5 8 -5 4 -23 39 -39 77 -16 39 -32 72 -35 75 -4 3 -19 35 -35 73 -15 37 -31 67 -34 67 -4 0 -20 34 -36 75 -17 41 -34 75 -38 75 -4 0 -18 21 -29 47 -11 26 -27 53 -34 61 -8 7 -14 19 -14 27 0 17 -39 108 -49 115 -4 3 -19 34 -35 70 -15 36 -31 67 -34 70 -4 3 -20 32 -36 65 -16 33 -32 62 -35 65 -4 3 -19 34 -35 70 -15 36 -31 67 -35 70 -4 3 -20 35 -36 73 -15 37 -31 67 -34 67 -4 0 -17 27 -30 60 -13 33 -27 60 -31 60 -4 0 -20 32 -35 70 -15 38 -31 70 -35 70 -4 0 -19 32 -34 70 -15 39 -32 70 -37 70 -5 0 -9 5 -9 12 0 13 -50 121 -59 128 -4 3 -19 34 -35 70 -15 36 -31 67 -35 70 -4 3 -18 30 -30 60 -13 30 -27 57 -31 60 -4 3 -20 34 -35 70 -15 36 -30 67 -34 70 -4 3 -20 32 -36 64 -15 33 -34 66 -41 74 -8 7 -14 19 -14 27 0 17 -39 108 -49 115 -4 3 -19 34 -35 70 -15 36 -31 67 -35 70 -4 3 -20 35 -36 73 -15 37 -31 67 -35 67 -4 0 -10 10 -13 23 -4 12 -12 31 -20 41 -15 21 -16 20 -67 -26 -10 -9 -27 -21 -37 -26 -23 -13 -139 -42 -164 -42 -10 0 -19 -4 -19 -9 0 -22 -148 -29 -165 -8 -5 7 -26 24 -45 37 -40 28 -58 43 -120 104 -78 77 -102 109 -123 166 -25 65 -41 84 -64 76 -9 -4 -19 -3 -22 2 -3 5 -21 13 -39 17 l-33 7 6 -39z"></path>
    </g>
  </g>
  <g fill="rgb(254,167,3)">
    <g>
      <path d="M5985 9613 c-26 -7 -75 -58 -75 -78 0 -8 -4 -15 -10 -15 -5 0 -10 -22 -10 -50 0 -27 4 -50 9 -50 5 0 11 -19 15 -42 15 -109 51 -283 58 -286 5 -2 8 -14 8 -27 0 -40 40 -259 48 -265 5 -3 21 -77 37 -165 16 -88 32 -161 37 -163 4 -2 8 -13 8 -25 0 -38 54 -312 62 -315 4 -2 8 -14 8 -27 0 -59 12 -86 41 -92 16 -3 29 -10 29 -15 0 -6 10 -8 23 -6 29 6 38 -4 64 -72 21 -57 45 -89 123 -166 62 -61 80 -76 120 -104 19 -13 40 -30 45 -37 18 -23 185 -15 185 8 0 5 9 9 19 9 25 0 141 29 164 42 10 5 27 17 37 26 10 9 26 23 34 30 20 16 20 36 2 55 -8 8 -27 43 -41 78 -15 35 -30 66 -34 69 -4 3 -20 32 -36 65 -15 33 -31 62 -36 65 -5 3 -20 37 -34 75 -13 38 -28 71 -33 74 -4 3 -20 35 -36 71 -15 36 -31 67 -34 70 -4 3 -18 28 -32 55 -14 28 -30 56 -37 63 -7 7 -13 19 -13 26 0 17 -40 109 -50 116 -4 3 -20 34 -35 70 -15 36 -31 67 -35 70 -4 3 -20 34 -35 70 -15 36 -31 67 -35 70 -9 6 -60 114 -60 128 0 6 -4 12 -8 14 -4 2 -21 33 -36 70 -16 37 -34 69 -40 71 -6 3 -20 28 -31 56 -11 28 -23 51 -26 51 -4 0 -20 32 -35 70 -15 39 -31 70 -35 70 -4 0 -12 12 -18 28 -16 42 -42 82 -84 125 -32 34 -45 40 -85 43 -26 1 -56 0 -67 -3z"></path>
    </g>
  </g>
</svg>